<svg width="1914" height="146" viewBox="0 0 1914 146" fill="none" xmlns="http://www.w3.org/2000/svg">
<path d="M895.697 83.4333C893.309 83.4654 890.94 83.7336 888.666 84.2292V84.2292C889.615 83.7422 895.117 82.6493 895.697 83.4333Z" fill="url(#paint0_linear)"/>
<path d="M888.736 84.2295C887.741 84.855 886.439 85.2103 885.08 85.2273C884.394 85.2392 886.24 84.7047 888.736 84.2295Z" fill="url(#paint1_linear)"/>
<path d="M1914 145.828H0V52.9607L682.666 53.2339C683.352 59.6136 692.106 91.0011 727.596 87.3658C727.121 89.1003 726.682 90.7753 726.242 92.4504C725.803 94.1255 725.293 96.0145 724.994 97.7372C724.362 101.373 728.141 104.152 732.764 103.487C734.352 103.271 735.811 102.747 736.965 101.978C738.348 100.985 739.291 99.7508 739.69 98.4143C739.971 97.6302 740.094 96.8105 740.305 96.0382C740.991 93.187 741.746 90.3358 742.379 87.4727C742.573 86.6054 743.047 86.154 744.137 85.9877C744.752 85.8926 745.385 85.8332 746.053 85.7738C748.409 85.5837 750.834 85.5718 753.084 85.2392C771.629 82.4236 775.795 81.0218 797.311 66.5517C797.803 66.2191 798.665 68.9277 798.401 69.3792C797.007 71.8666 796.068 74.4599 795.606 77.1013C795.161 79.024 795.292 80.9874 795.993 82.8751C796.262 83.9039 797.011 84.8474 798.131 85.5678C799.25 86.2882 800.682 86.7476 802.215 86.8787C803.727 87.0315 805.27 86.9574 806.734 86.6617C808.198 86.366 809.548 85.856 810.688 85.1678V85.1678L811.075 84.9303C812.335 84.1239 813.51 83.2584 814.59 82.3404C818.842 78.8405 822.735 75.1492 826.245 71.2919C826.544 70.9592 826.649 70.4128 827.616 70.4365C827.528 71.1375 827.458 71.8384 827.352 72.5275C827.352 72.8601 827.264 73.1927 827.194 73.5135C826.892 75.2957 826.774 77.09 826.842 78.8833C826.854 80.0807 827.221 81.2643 827.922 82.3641C828.622 83.464 829.642 84.4578 830.921 85.2868C831.467 85.6687 832.123 85.971 832.848 86.1753C833.574 86.3796 834.353 86.4816 835.139 86.4748C835.933 86.4464 836.695 86.2548 837.323 85.9257C837.952 85.5967 838.416 85.1457 838.655 84.6333C838.973 84.0832 839.05 83.4831 838.879 82.9041C838.708 82.325 838.294 81.7914 837.688 81.3662C837.152 80.9744 836.563 80.6165 835.93 80.297C835.577 80.138 835.299 79.913 835.13 79.6495C834.962 79.3859 834.91 79.095 834.981 78.812C834.981 77.5527 834.981 76.2816 835.104 75.0104C835.315 72.6343 840.378 80.7485 841.256 83.0176C841.374 83.3804 841.527 83.7376 841.713 84.0869V84.0869C842.442 85.6666 843.638 87.1297 845.229 88.3875C846.357 89.3412 847.954 89.9902 849.729 90.2169C851.896 90.5004 854.13 90.4557 856.268 90.0863C858.339 89.6765 860.286 89.0208 862.016 88.1498C863.487 87.4141 864.852 86.5868 866.094 85.6788C869.862 82.8893 872.932 79.7031 875.182 76.2458C875.516 75.7706 875.604 75.0579 876.413 74.8797C876.94 75.2005 876.676 75.6044 876.694 75.9252V77.5883C876.694 78.4437 876.694 79.311 876.817 80.1663C876.91 82.2425 877.553 84.2906 878.716 86.2133C880.139 88.4468 882.407 89.3497 885.553 88.8864C887.769 88.5444 889.849 87.8839 891.653 86.9499V86.9499C892.602 86.461 893.495 85.925 894.325 85.3461C894.997 84.8771 895.454 84.2874 895.643 83.6473C895.688 83.571 895.688 83.4859 895.643 83.4096C896.054 83.3788 896.47 83.4133 896.857 83.5103C897.245 83.6072 897.594 83.7638 897.876 83.9679C897.98 84.0645 898.035 84.1812 898.034 84.3006C898.526 87.4132 900.952 89.314 904.925 89.6348C906.326 89.7569 907.75 89.6714 909.098 89.3842C910.446 89.097 911.685 88.6151 912.729 87.9717V87.9717C912.896 87.8876 913.055 87.7962 913.204 87.6983C914.683 86.7327 916.058 85.6965 917.317 84.5976C921.001 81.5075 924.389 78.2617 927.46 74.8797C927.829 74.4877 928.005 73.8817 928.936 73.8698C928.854 74.4796 928.767 75.0736 928.673 75.6518C928.673 75.7825 928.673 75.9371 928.673 76.0796C928.389 78.0138 928.271 79.9574 928.321 81.9008C928.339 83.0297 928.686 84.1452 929.344 85.1829C930.002 86.2207 930.956 87.1604 932.153 87.9479C933.17 88.6801 934.543 89.1399 936.02 89.2428C937.778 89.3735 948.325 90.8229 948.325 79.6318C948.325 79.0853 954.899 88.827 958.978 89.6467C961.654 90.2343 964.549 90.1755 967.169 89.4804C967.696 89.3259 968.276 88.7794 969.103 89.4804C968.136 93.1751 967.169 96.9767 966.132 100.755C964.444 106.956 962.728 113.154 960.981 119.347C960.338 121.058 960.677 122.871 961.931 124.42C962.293 124.402 962.656 124.438 962.996 124.524C963.336 124.61 963.644 124.745 963.899 124.919C964.251 124.586 964.603 124.527 964.954 124.919C965.271 124.408 965.833 124.432 966.413 124.444C966.786 124.139 967.126 123.818 967.433 123.481C968.397 122.493 968.921 121.339 968.944 120.155C969.01 119.787 969.11 119.422 969.243 119.062C971.546 108.691 974.341 98.4025 976.925 88.0786C976.925 87.7459 977.048 87.342 977.698 87.1757C978.226 87.544 978.788 87.9479 979.351 88.3637C979.554 88.5005 979.771 88.6274 980.001 88.7438C981.164 89.3735 982.553 89.7835 984.026 89.9318C985.734 90.1055 987.474 90.0653 989.159 89.813C993.255 89.1715 1007.84 90.906 1018.22 68.0129C1018.13 68.4169 1017.02 72.0403 1016.62 73.7748C1015.86 76.8637 1015.57 79.9963 1015.76 83.1245C1015.85 84.9695 1016.64 86.768 1018.04 88.3518C1018.74 89.2148 1019.75 89.9429 1020.98 90.4669C1022.21 90.991 1023.62 91.2935 1025.07 91.3456C1027.71 91.4026 1030.3 90.8308 1032.38 89.7299L1032.88 89.4804C1034.87 88.3895 1036.6 87.0901 1037.99 85.6312C1039.87 83.7103 1041.49 81.6785 1042.83 79.5604C1043.34 78.7645 1043.92 77.9923 1044.46 77.1844C1044.45 77.1212 1044.45 77.0575 1044.46 76.9943C1044.46 76.6616 1044.76 76.5192 1045.04 76.341C1045.05 76.6239 1045.02 76.9066 1044.93 77.1844C1044.67 78.2655 1044.35 79.3347 1044.11 80.4396C1044.11 80.8554 1043.93 81.2712 1043.88 81.6276C1043.62 82.8909 1043.54 84.1673 1043.62 85.4412C1043.76 86.818 1044.47 88.14 1045.67 89.2547C1046.04 89.7297 1046.66 90.0912 1047.41 90.2638C1048.16 90.4364 1048.98 90.4069 1049.7 90.1814C1050.21 90.0388 1051.56 89.3141 1051.91 89.1952C1051.96 89.1342 1052 89.0707 1052.04 89.0053C1052.45 88.4846 1052.63 87.8916 1052.54 87.3029C1052.45 86.7141 1052.11 86.1566 1051.54 85.7025C1051.15 85.3487 1050.87 84.9462 1050.71 84.518C1050.55 84.0898 1050.52 83.6446 1050.61 83.2077C1050.61 82.7682 1052.74 82.6019 1054.29 83.0652C1054.71 83.1746 1055.09 83.3553 1055.38 83.5902C1055.67 83.825 1055.87 84.1064 1055.96 84.4076C1056.47 85.6957 1057.14 86.9547 1057.94 88.1736L1061.11 91.0248C1061.42 91.1436 1062.55 91.5357 1062.86 91.6189C1064.97 92.1106 1067.22 92.2592 1069.43 92.0528C1071.64 91.8463 1073.74 91.2907 1075.57 90.4308C1075.98 90.2645 1076.36 90.0862 1076.75 89.908C1078.38 89.075 1079.88 88.1359 1081.23 87.1043C1084.87 84.3285 1087.84 81.1809 1090.02 77.7784C1090.29 77.3626 1090.41 76.8042 1091.36 76.5904V78.9664C1091.36 79.1328 1091.36 79.2872 1091.36 79.4536C1091.36 81.1524 1091.56 82.8484 1091.96 84.5264C1092.25 85.9847 1092.91 87.3985 1093.91 88.7083C1094.36 89.3839 1095.11 89.9482 1096.05 90.3229C1097 90.6977 1098.09 90.864 1099.18 90.799C1103.31 90.6215 1107.21 89.4499 1110.17 87.4965C1110.5 87.2394 1110.81 86.9696 1111.1 86.6885C1111.84 86.0351 1112.86 85.0966 1113.84 84.1818L1116.76 81.485C1116.91 83.8509 1117.65 86.1821 1118.97 88.3756C1120.73 90.7516 1121.07 90.1457 1124.62 90.5734C1128.62 91.0367 1132.26 90.9298 1135.48 89.0765C1138.7 87.2232 1142.05 86.7005 1145.04 83.0057C1148.38 78.8358 1155.69 73.1926 1157 68.5237L1157.15 68.0605C1156.21 71.0729 1155.62 74.132 1155.4 77.2082C1155.21 80.2565 1156.08 83.2922 1157.94 86.0708C1158.54 87.1089 1159.49 88.0394 1160.71 88.7895C1161.93 89.5396 1163.39 90.0891 1164.98 90.3952C1166.7 90.7252 1168.51 90.7899 1170.28 90.5843C1172.05 90.3787 1173.73 89.9081 1175.19 89.2071C1177.53 88.1498 1180.46 87.7221 1182.22 86.1183C1182.68 85.6788 1183.12 85.2986 1183.54 84.9303L1184.17 84.4076C1184.32 84.2899 1184.45 84.1669 1184.58 84.0393L1184.87 83.7661C1186.89 82.1941 1188.56 80.4285 1189.81 78.5269C1190.78 77.1131 1191.73 74.8084 1193.12 73.0739L1199.48 62.857H1909.41L1914 145.828Z" fill="url(#paint2_linear)"/>
<path d="M985.011 119.846C984.758 119.746 984.532 119.618 984.343 119.466C984.206 119.339 984.138 119.184 984.15 119.026C984.189 118.697 984.314 118.376 984.519 118.076C984.765 117.66 985.187 116.995 985.784 116.092C985.96 115.807 986.294 115.284 986.786 114.548C987.766 113.229 988.6 111.863 989.283 110.461C989.269 110.394 989.269 110.326 989.283 110.259C989.283 110.037 989.511 109.835 989.968 109.653C990.62 109.155 991.17 108.599 991.603 108.002C991.902 107.503 992.288 106.921 992.781 106.232C993.273 105.543 993.871 104.723 994.539 103.784C994.872 103.309 995.4 102.596 996.085 101.729C997.306 100.053 998.68 98.4306 1000.2 96.87C1000.85 96.1691 1001.39 95.8363 1001.83 95.8601C1002.5 95.9115 1003.12 96.1171 1003.59 96.4422C1004.23 96.7943 1004.71 97.2534 1005 97.7729C1005.15 98.1027 1005.21 98.4496 1005.17 98.7946C1005.17 99.4836 1005.07 100.672 1004.87 102.359C1004.87 102.644 1004.75 103.107 1004.7 103.737C1004.61 104.746 1004.49 105.828 1004.31 106.98C1004 109.499 1003.77 111.471 1003.61 112.92C1003.45 114.37 1003.4 115.664 1003.4 116.9C1003.4 117.53 1003.4 117.993 1003.4 118.278V118.516V119.288C1003.3 119.362 1003.18 119.42 1003.05 119.457C1002.91 119.494 1002.77 119.509 1002.62 119.502C1002.22 119.497 1001.81 119.419 1001.46 119.276C1001.3 119.228 1001.16 119.157 1001.05 119.066C1000.94 118.975 1000.86 118.868 1000.81 118.753L1000.67 118.682C1000.67 118.682 1000.67 118.563 1000.67 118.385V117.637L1000.8 115.748L1001.02 110.283H1000.46C999.882 110.283 998.599 110.378 996.613 110.556C995.362 110.64 994.122 110.787 992.904 110.995C992.714 111.017 992.532 111.064 992.369 111.133C992.206 111.203 992.065 111.293 991.954 111.399C991.545 111.712 991.207 112.065 990.952 112.445C990.802 112.779 990.602 113.101 990.355 113.407C990.153 113.635 989.994 113.878 989.88 114.132C989.694 114.229 989.539 114.35 989.423 114.488C989.335 114.579 989.258 114.674 989.195 114.773C989.017 115.426 988.715 116.061 988.298 116.662C987.808 117.535 987.22 118.381 986.54 119.193L985.626 120.274L985.011 119.846ZM995.066 108.821C995.583 108.755 996.105 108.708 996.63 108.679C997.867 108.407 999.138 108.212 1000.43 108.097C1000.63 108.097 1000.82 108.134 1000.99 108.204C1001.06 108.281 1001.16 108.346 1001.27 108.394H1001.46C1001.46 108.251 1001.69 107.039 1001.99 104.735C1002.29 102.43 1002.47 100.885 1002.5 100.125L1002.62 98.4381C1002.45 98.4381 1002.08 98.6995 1001.5 99.2104C1000.8 99.8542 1000.16 100.524 999.583 101.218C998.887 102.033 998.259 102.874 997.703 103.737C997.421 104.141 997.14 104.521 996.859 104.925C996.577 105.329 996.402 105.447 996.279 105.447C995.732 106.026 995.256 106.634 994.855 107.265C994.099 108.323 993.8 108.905 993.941 108.988L995.066 108.821Z" fill="white"/>
<path d="M1006 126.321C1005.75 126.321 1005.58 126.214 1005.44 126.012C1005.28 125.842 1005.2 125.643 1005.21 125.442C1005.25 125.043 1005.32 124.646 1005.44 124.254C1005.68 123.616 1005.84 122.963 1005.91 122.305C1005.89 122.143 1005.89 121.98 1005.91 121.818C1005.91 121.604 1006 121.403 1006.03 121.224C1006.18 120.992 1006.29 120.749 1006.35 120.499C1006.45 120.215 1006.5 119.924 1006.51 119.632C1006.52 119.499 1006.57 119.369 1006.67 119.252C1006.74 119.116 1006.86 118.993 1007.02 118.896C1007.04 118.683 1007.09 118.473 1007.16 118.266C1007.16 117.993 1007.3 117.791 1007.34 117.684C1007.48 117.078 1008.04 115.64 1009.01 113.359C1009.97 111.078 1010.76 109.261 1011.52 107.859C1011.81 107.357 1012.04 106.841 1012.2 106.314C1012.33 105.947 1012.4 105.573 1012.42 105.198C1012.42 105.108 1012.46 105.022 1012.54 104.948C1012.64 104.835 1012.76 104.728 1012.89 104.627C1013.02 104.501 1013.23 104.416 1013.45 104.39C1013.63 104.396 1013.79 104.442 1013.93 104.52C1014.11 104.616 1014.29 104.72 1014.45 104.829C1014.61 105.012 1014.75 105.203 1014.86 105.399C1014.97 105.581 1015.02 105.775 1015.02 105.97C1015.02 106.041 1015.02 106.255 1014.93 106.611C1014.96 107.024 1014.83 107.435 1014.54 107.799C1014.28 108.108 1014.17 108.251 1014.24 108.227C1015.31 107.793 1016.52 107.548 1017.76 107.514C1018.31 107.499 1018.85 107.575 1019.34 107.735C1019.84 107.894 1020.26 108.132 1020.59 108.429C1021.31 109.124 1021.67 109.959 1021.61 110.805C1021.58 111.306 1021.42 111.8 1021.15 112.266C1020.98 112.7 1020.67 113.104 1020.26 113.454C1020.1 113.454 1019.87 113.692 1019.57 114.167C1019.09 114.631 1018.5 115.033 1017.81 115.355C1016.93 115.747 1016.34 115.902 1016.05 115.807H1015.93C1015.91 115.833 1015.9 115.861 1015.9 115.89C1015.9 115.919 1015.91 115.947 1015.93 115.973C1015.93 116.068 1015.44 116.235 1014.47 116.484C1013.7 116.701 1012.88 116.825 1012.05 116.852C1011.79 116.876 1011.53 116.876 1011.27 116.852C1011.07 116.808 1010.89 116.73 1010.75 116.627C1010.58 116.747 1010.47 116.902 1010.45 117.066C1010.38 117.527 1010.24 117.982 1010.02 118.42C1009.73 119.074 1009.5 119.395 1009.32 119.395L1009.22 119.537C1009.2 119.578 1009.21 119.62 1009.22 119.66C1009.24 119.699 1009.28 119.735 1009.32 119.763C1009.33 119.921 1009.33 120.08 1009.32 120.238C1009.31 120.436 1009.24 120.629 1009.11 120.808C1009.1 121.088 1009.05 121.366 1008.97 121.64C1008.92 121.912 1008.82 122.18 1008.67 122.436C1008.67 122.701 1008.62 122.965 1008.51 123.22C1008.42 123.482 1008.31 123.612 1008.2 123.612C1008.02 123.612 1007.93 123.981 1007.93 124.586C1007.95 125.043 1007.81 125.495 1007.51 125.905C1007.25 126.226 1006.95 126.38 1006.6 126.38L1006 126.321ZM1014.17 114.5C1015.17 114.263 1016.09 113.913 1016.92 113.466C1017.49 113.083 1017.98 112.647 1018.37 112.171C1018.74 111.745 1018.93 111.262 1018.94 110.769C1018.95 110.423 1018.81 110.081 1018.55 109.783C1018.45 109.662 1018.29 109.562 1018.11 109.497C1017.93 109.432 1017.72 109.403 1017.51 109.415C1016.78 109.449 1016.08 109.613 1015.47 109.89C1014.65 110.199 1013.92 110.601 1013.29 111.078C1012.68 111.595 1012.21 112.182 1011.91 112.813C1011.57 113.377 1011.36 113.975 1011.31 114.583C1011.31 114.833 1011.31 114.963 1011.55 114.963C1012.49 114.9 1013.4 114.744 1014.26 114.5H1014.17Z" fill="white"/>
<path d="M1024.23 117.09C1024.05 116.947 1023.95 116.852 1023.95 116.804C1023.97 116.604 1023.89 116.405 1023.74 116.234C1023.69 116.133 1023.69 116.026 1023.74 115.925C1023.83 115.294 1024.06 114.674 1024.4 114.084C1024.91 113.125 1025.5 112.185 1026.16 111.269C1026.41 111.046 1026.63 110.812 1026.83 110.568C1026.97 110.358 1027.14 110.163 1027.36 109.985C1027.36 109.894 1027.41 109.807 1027.5 109.736C1027.53 109.7 1027.57 109.671 1027.62 109.65C1027.68 109.629 1027.74 109.618 1027.8 109.617V109.415C1028.11 108.864 1028.59 108.365 1029.22 107.954C1029.89 107.357 1030.67 106.818 1031.54 106.35C1032.16 105.988 1032.94 105.783 1033.76 105.768C1034.25 105.765 1034.73 105.888 1035.09 106.113C1035.23 106.243 1035.9 106.73 1037.08 107.562L1038.68 108.679L1037.9 110.366C1037.65 110.9 1037.52 111.456 1037.5 112.017C1037.5 112.878 1037.83 113.724 1038.45 114.476C1038.64 114.762 1038.95 115.007 1039.33 115.189C1039.7 115.395 1040.14 115.534 1040.61 115.593C1040.88 115.608 1041.13 115.693 1041.31 115.831C1041.48 115.969 1041.57 116.147 1041.56 116.329C1041.56 116.781 1041.31 117.054 1040.79 117.137C1040.62 117.154 1040.45 117.154 1040.28 117.137C1038.52 117.137 1037.11 116.211 1035.86 114.345C1035.69 114.101 1035.54 113.852 1035.41 113.597C1035.28 113.356 1035.18 113.11 1035.09 112.86L1034.44 113.502L1033.7 114.143C1030.57 116.591 1028.1 117.814 1026.28 117.814C1025.73 117.821 1025.19 117.704 1024.74 117.482C1024.6 117.332 1024.43 117.199 1024.23 117.09V117.09ZM1026.65 115.724C1027.05 115.649 1027.43 115.537 1027.78 115.391C1028.27 115.188 1028.72 114.949 1029.13 114.678C1031.14 113.377 1032.91 111.917 1034.41 110.33L1035.36 109.142C1035.16 108.761 1034.85 108.41 1034.46 108.108C1034.24 107.931 1033.93 107.817 1033.6 107.788C1032.98 107.788 1032.03 108.382 1030.75 109.558C1029.36 110.858 1028.18 112.256 1027.23 113.728C1026.99 114.108 1026.74 114.5 1026.55 114.916C1026.36 115.331 1026.21 115.557 1026.16 115.676C1026.11 115.795 1026.36 115.819 1026.65 115.724V115.724Z" fill="white"/>
<path d="M1057.24 99.4955C1057.24 99.5905 1057.15 99.8043 1057.07 100.161C1056.98 100.517 1056.84 100.731 1056.63 100.814H1056.24C1056.09 100.806 1055.95 100.774 1055.82 100.719C1055.37 100.58 1054.9 100.48 1054.41 100.422C1053.84 100.335 1053.25 100.291 1052.65 100.292C1052.21 100.27 1051.76 100.327 1051.35 100.458C1051.11 100.533 1050.85 100.585 1050.58 100.612C1050.3 100.628 1050.03 100.703 1049.81 100.826C1049.98 101.099 1050.35 101.563 1050.93 102.24C1051.29 102.623 1051.62 103.02 1051.92 103.428C1051.94 103.514 1051.94 103.603 1051.92 103.689C1051.91 103.733 1051.91 103.777 1051.93 103.818C1051.96 103.859 1051.99 103.897 1052.04 103.927C1052.21 104.248 1052.36 104.58 1052.5 104.937C1052.62 105.267 1052.68 105.606 1052.69 105.946C1053.01 106.635 1053.18 107.351 1053.2 108.073C1053.24 108.218 1053.24 108.367 1053.2 108.512V108.916C1053.19 109.117 1053.14 109.317 1053.06 109.51C1052.97 109.692 1052.9 109.879 1052.87 110.069V110.342C1052.88 110.704 1052.84 111.067 1052.74 111.423C1052.61 111.778 1052.46 112.127 1052.27 112.469L1051.35 114.583C1050.57 115.729 1049.64 116.827 1048.58 117.862C1047.82 118.539 1047.17 118.789 1046.66 118.634C1046.32 118.657 1045.98 118.625 1045.66 118.539C1045.29 118.424 1044.93 118.289 1044.59 118.135C1043.94 117.753 1043.44 117.269 1043.14 116.726C1042.83 116.184 1042.72 115.599 1042.83 115.023C1042.84 114.02 1043.04 113.022 1043.43 112.053C1043.95 110.653 1044.73 109.301 1045.73 108.025C1046.38 107.046 1047.37 106.187 1048.61 105.519C1048.87 105.504 1049.13 105.504 1049.38 105.519C1049.69 105.496 1050 105.496 1050.3 105.519C1050.36 104.893 1050.17 104.268 1049.74 103.713C1049.35 103.027 1048.88 102.367 1048.31 101.741C1048.14 101.554 1047.96 101.375 1047.75 101.206C1047.48 101.013 1047.25 100.797 1047.06 100.565C1046.96 100.429 1046.9 100.279 1046.89 100.125C1046.88 100.001 1046.93 99.8782 1047.01 99.7687C1047.06 99.7229 1047.11 99.6836 1047.18 99.653C1047.24 99.6224 1047.32 99.6011 1047.4 99.5905L1048.61 99.1866C1049.14 98.9965 1049.53 98.8778 1049.77 98.8065C1050.29 98.6887 1050.82 98.5896 1051.35 98.5095C1052.18 98.3669 1052.81 98.2836 1053.27 98.2361C1053.49 98.2208 1053.7 98.2208 1053.92 98.2361C1054.4 98.2436 1054.87 98.2674 1055.34 98.3075C1055.66 98.3174 1055.97 98.3742 1056.26 98.4738C1056.5 98.6036 1056.69 98.7654 1056.84 98.949C1056.98 99.1867 1057.12 99.3648 1057.24 99.4955ZM1049.89 106.814C1049.82 107.135 1049.64 107.442 1049.38 107.717C1049.15 108.02 1048.88 108.306 1048.56 108.572C1047.66 109.384 1046.99 110.297 1046.57 111.269C1046.02 112.307 1045.63 113.382 1045.41 114.476C1045.41 114.928 1045.32 115.189 1045.32 115.249C1045.34 115.593 1045.41 115.935 1045.54 116.27L1046.4 116.876C1046.82 116.502 1047.21 116.105 1047.54 115.688C1047.86 115.296 1048.12 114.916 1048.35 114.559C1048.84 113.835 1049.19 113.371 1049.42 113.074C1049.5 112.704 1049.65 112.341 1049.86 111.993C1050.09 111.533 1050.27 111.06 1050.39 110.58C1050.55 110.012 1050.63 109.435 1050.63 108.857C1050.75 108.139 1050.49 107.416 1049.89 106.814V106.814Z" fill="white"/>
<path d="M1059.97 118.017C1059.2 117.994 1058.46 117.869 1057.77 117.648C1057.61 117.648 1057.38 117.553 1057.06 117.339C1056.76 117.156 1056.53 116.929 1056.38 116.674C1055.94 116.111 1055.74 115.48 1055.78 114.845C1055.85 113.437 1056.27 112.047 1057.03 110.734C1057.49 110.029 1058.02 109.346 1058.61 108.691C1058.99 108.163 1059.49 107.678 1060.09 107.253C1060.3 107.202 1060.5 107.142 1060.7 107.075L1061.78 106.683C1062.21 106.521 1062.7 106.439 1063.2 106.445C1063.84 106.482 1064.45 106.643 1064.96 106.908C1065.6 107.178 1066.15 107.539 1066.57 107.966C1066.76 108.108 1066.89 108.275 1066.96 108.456C1067.04 108.636 1067.06 108.826 1067.01 109.011C1066.88 109.173 1066.72 109.322 1066.52 109.451L1065.8 109.985C1065.74 110.04 1065.67 110.085 1065.58 110.116C1065.49 110.147 1065.39 110.163 1065.29 110.164C1065.15 110.162 1065.02 110.137 1064.9 110.092C1064.78 110.046 1064.68 109.981 1064.61 109.902C1064.38 109.707 1064.25 109.463 1064.25 109.213C1064.14 109.033 1063.95 108.88 1063.71 108.774C1063.51 108.666 1063.31 108.567 1063.09 108.477C1062.85 108.477 1062.53 108.631 1062.11 108.94C1061.65 109.31 1061.23 109.707 1060.88 110.128C1060.14 110.723 1059.55 111.392 1059.12 112.112C1058.72 112.773 1058.38 113.452 1058.12 114.144C1058.08 114.297 1058.08 114.454 1058.12 114.607C1058.12 114.858 1058.16 115.109 1058.23 115.355C1058.26 115.524 1058.34 115.686 1058.47 115.831C1058.61 115.851 1058.75 115.851 1058.89 115.831C1059.85 115.802 1060.79 115.715 1061.72 115.569C1062.69 115.452 1063.64 115.265 1064.55 115.011C1065.09 114.711 1065.76 114.537 1066.45 114.512C1066.6 114.495 1066.75 114.495 1066.89 114.512C1067.26 114.643 1067.45 114.797 1067.45 114.975C1067.45 115.154 1067.03 115.629 1066.19 115.997C1065.75 116.179 1065.33 116.381 1064.94 116.603C1064.61 116.805 1064.43 116.959 1064.43 117.066C1064.31 117.083 1064.19 117.115 1064.08 117.161C1063.9 117.161 1063.8 117.233 1063.73 117.161C1063.23 117.21 1062.74 117.29 1062.27 117.399C1061.82 117.477 1061.38 117.589 1060.97 117.731C1060.67 117.88 1060.33 117.977 1059.97 118.017V118.017Z" fill="white"/>
<path d="M1080.07 117.636C1079.68 117.38 1079.31 117.102 1078.98 116.805C1078.25 116.037 1077.57 115.244 1076.96 114.429L1075.2 112.278C1075.12 112.457 1075.01 112.647 1074.89 112.861C1074.76 113.047 1074.67 113.242 1074.61 113.443C1074.57 113.66 1074.57 113.879 1074.61 114.096C1074.29 114.466 1074.07 114.867 1073.94 115.284C1073.78 115.771 1073.66 116.104 1073.57 116.306C1073.4 116.775 1073 117.193 1072.44 117.494C1072.13 117.452 1071.83 117.363 1071.56 117.234C1071.3 117.105 1071.09 116.938 1070.93 116.745C1070.79 116.533 1070.72 116.302 1070.72 116.068C1070.73 115.793 1070.8 115.521 1070.93 115.26C1070.93 115.058 1071.2 114.583 1071.55 113.847C1071.9 113.11 1072.16 112.504 1072.36 112.053C1072.55 111.601 1072.74 111.269 1073.08 110.556C1073.29 110.144 1073.47 109.723 1073.6 109.297C1073.79 108.878 1074.05 108.478 1074.39 108.109C1074.87 107.487 1075.23 106.829 1075.47 106.148C1075.55 105.967 1075.71 105.806 1075.92 105.685C1076.13 105.553 1076.4 105.477 1076.68 105.471C1076.85 105.475 1077.01 105.512 1077.15 105.577C1077.29 105.642 1077.39 105.734 1077.45 105.839C1077.53 105.876 1077.62 105.904 1077.72 105.923C1077.82 105.954 1077.91 106.008 1077.96 106.077C1078.24 106.291 1078.4 106.565 1078.4 106.849C1078.39 107.051 1078.32 107.249 1078.19 107.431C1077.98 107.716 1077.77 108.002 1077.54 108.275C1077.17 108.762 1076.86 109.213 1076.61 109.617C1076.29 110.182 1076 110.757 1075.77 111.34C1076.28 111.27 1076.78 111.15 1077.24 110.984C1077.69 110.736 1078.08 110.448 1078.4 110.128C1078.91 109.724 1079.4 109.368 1079.86 109.047C1081.62 107.717 1082.57 107.004 1082.67 106.885C1082.86 106.669 1083.06 106.462 1083.29 106.267C1083.46 106.113 1083.7 106 1083.97 105.946C1084.27 105.967 1084.55 106.023 1084.82 106.113C1085.19 106.302 1085.54 106.504 1085.87 106.719C1086 106.86 1086.07 107.027 1086.05 107.194C1086.07 107.36 1086.04 107.528 1085.96 107.685C1085.87 107.843 1085.74 107.987 1085.57 108.109C1085.57 108.109 1084.92 108.501 1083.82 109.154C1081.71 110.52 1079.93 111.601 1078.46 112.385C1079.15 113.242 1079.77 114.122 1080.32 115.023C1080.31 115.233 1080.37 115.442 1080.49 115.634C1080.62 115.826 1080.82 115.995 1081.06 116.128C1081.58 116.346 1082.2 116.453 1082.81 116.437C1083.02 116.509 1083.18 116.627 1083.27 116.769C1083.34 116.912 1083.38 117.059 1083.39 117.209C1083.38 117.335 1083.38 117.462 1083.39 117.589C1083.11 117.732 1082.85 117.895 1082.62 118.076C1082.36 118.266 1082.15 118.361 1081.97 118.361C1081.64 118.335 1081.32 118.266 1081.02 118.159C1080.67 118.02 1080.35 117.844 1080.07 117.636V117.636Z" fill="white"/>
<path d="M1096.88 116.876C1096.33 116.159 1095.98 115.383 1095.84 114.583C1095.84 114.583 1095.46 114.797 1094.84 115.284C1094.01 115.972 1093.12 116.623 1092.17 117.232C1091.89 117.447 1091.54 117.618 1091.15 117.731C1090.76 117.844 1090.34 117.897 1089.92 117.886C1089.4 117.637 1088.93 117.355 1088.49 117.042C1088.27 116.883 1088.1 116.687 1088.02 116.472C1087.72 115.814 1087.54 115.13 1087.51 114.44C1087.5 114.005 1087.57 113.571 1087.7 113.146C1087.83 112.73 1088.07 112.112 1088.41 111.304C1088.41 111.173 1088.79 110.33 1089.39 108.798C1089.62 107.894 1090.06 107.021 1090.69 106.208H1091.25C1091.38 106.201 1091.51 106.219 1091.63 106.259C1091.74 106.299 1091.84 106.359 1091.9 106.433C1092.03 106.572 1092.2 106.69 1092.4 106.778C1092.52 106.826 1092.63 106.894 1092.7 106.978C1092.78 107.061 1092.82 107.156 1092.82 107.253C1092.63 108.124 1092.32 108.98 1091.87 109.807C1091.34 110.956 1090.94 111.906 1090.66 112.658C1090.39 113.325 1090.24 114.011 1090.22 114.702C1090.21 114.986 1090.26 115.269 1090.36 115.545C1090.53 115.545 1090.82 115.403 1091.2 115.13C1091.59 114.856 1091.87 114.643 1092.05 114.536C1092.7 114.136 1093.29 113.69 1093.8 113.205C1094.43 112.681 1095.02 112.134 1095.56 111.566C1096.02 110.916 1096.43 110.249 1096.79 109.57C1097.19 108.949 1097.46 108.293 1097.58 107.621C1097.57 107.428 1097.61 107.234 1097.71 107.051C1097.81 106.898 1097.98 106.767 1098.18 106.671C1098.5 106.654 1098.81 106.654 1099.13 106.671C1099.33 106.841 1099.54 107.004 1099.76 107.158L1100.31 107.55C1100.35 107.683 1100.38 107.818 1100.4 107.954C1100.27 108.817 1099.99 109.666 1099.57 110.485C1099.2 111.316 1098.92 112.017 1098.73 112.575C1098.54 113.117 1098.44 113.671 1098.44 114.227C1098.4 114.972 1098.72 115.707 1099.36 116.318C1099.78 116.179 1100.18 116.011 1100.55 115.819C1100.88 115.648 1101.2 115.466 1101.5 115.272C1101.95 114.978 1102.42 114.708 1102.93 114.464C1103.26 114.661 1103.48 114.929 1103.56 115.225C1103.71 115.56 1103.79 115.908 1103.81 116.258C1103.59 116.374 1103.4 116.51 1103.24 116.662C1102.9 117.149 1102.37 117.561 1101.7 117.85C1101.09 118.176 1100.34 118.37 1099.57 118.408C1099.39 118.4 1099.21 118.376 1099.04 118.337C1098.08 118.042 1097.32 117.523 1096.88 116.876V116.876Z" fill="white"/>
<path d="M1115.58 118.563C1115.19 118.369 1114.85 118.127 1114.6 117.85C1114.38 117.565 1114.24 117.255 1114.19 116.935C1114.19 116.626 1114.19 115.973 1114.19 114.987C1114.19 114.761 1114.19 114.642 1114.03 114.642C1113.87 114.642 1113.73 114.749 1113.42 114.963C1113.1 115.177 1112.71 115.462 1112.26 115.83C1111.63 116.311 1110.94 116.749 1110.18 117.137C1109.76 117.402 1109.21 117.557 1108.64 117.577C1108.32 117.577 1107.97 117.411 1107.62 117.078C1107.24 116.718 1106.95 116.316 1106.77 115.89C1106.68 115.581 1106.64 115.266 1106.65 114.951C1106.69 113.786 1106.95 112.629 1107.41 111.506C1107.83 110.308 1108.42 109.139 1109.16 108.014C1109.85 107.039 1110.44 106.552 1110.92 106.552C1111.4 106.552 1111.81 106.921 1112.13 107.657C1112.21 107.765 1112.25 107.882 1112.26 108.002C1112.24 108.183 1112.12 108.354 1111.92 108.477C1111.28 109.196 1110.77 109.966 1110.41 110.77C1109.88 111.774 1109.42 112.797 1109.04 113.835C1108.72 114.785 1108.65 115.248 1108.85 115.248C1109.36 115.223 1109.86 115.095 1110.27 114.88C1110.88 114.6 1111.43 114.273 1111.92 113.906C1112.47 113.481 1112.96 113.024 1113.38 112.54C1113.82 112.053 1114.35 111.352 1114.98 110.568C1115.72 109.714 1116.38 108.834 1116.97 107.93C1117.24 107.522 1117.55 107.125 1117.9 106.742C1118.07 106.565 1118.31 106.428 1118.6 106.35H1119.22C1119.46 106.404 1119.67 106.508 1119.82 106.647C1120.03 106.719 1120.15 106.79 1120.18 106.873C1120.21 106.979 1120.21 107.087 1120.18 107.194L1119.48 108.382L1119.1 109.094C1118.97 109.361 1118.81 109.619 1118.62 109.867C1117.97 111.055 1117.46 111.934 1117.11 112.635C1116.77 113.337 1116.51 114.056 1116.34 114.785C1116.34 114.904 1116.34 115.094 1116.34 115.367C1116.3 115.844 1116.38 116.322 1116.58 116.781C1116.77 117.103 1117.03 117.4 1117.37 117.66C1117.43 117.693 1117.49 117.734 1117.52 117.781C1117.56 117.828 1117.58 117.88 1117.58 117.933C1117.58 118.088 1117.43 118.242 1117.09 118.397C1116.89 118.519 1116.64 118.601 1116.37 118.634C1116.21 118.753 1115.9 118.717 1115.58 118.563ZM1113.17 104.901C1113.17 104.901 1112.85 103.879 1112.19 101.86C1112.14 101.738 1112.12 101.615 1112.1 101.491C1112.1 101.314 1112.16 101.14 1112.27 100.981C1112.35 100.888 1112.46 100.816 1112.61 100.779C1112.75 100.751 1112.9 100.751 1113.05 100.779C1113.38 100.875 1113.67 101.022 1113.91 101.206C1114.12 101.383 1114.26 101.597 1114.3 101.824C1114.38 101.976 1114.43 102.137 1114.44 102.299C1114.67 102.858 1114.98 103.143 1115.39 103.143C1115.6 103.116 1115.82 103.072 1116.02 103.012C1117.05 102.72 1117.98 102.282 1118.74 101.729L1120.5 100.41C1120.6 100.391 1120.7 100.391 1120.8 100.41C1120.88 100.404 1120.96 100.41 1121.03 100.426C1121.11 100.442 1121.18 100.469 1121.24 100.505C1121.37 100.613 1121.45 100.739 1121.49 100.874C1121.5 100.988 1121.5 101.104 1121.49 101.218V101.48V101.551C1121.49 101.681 1121.49 101.955 1121.06 102.347C1120.75 102.709 1120.35 103.034 1119.89 103.309C1119.04 103.782 1118.14 104.2 1117.18 104.556C1116.94 104.649 1116.68 104.705 1116.41 104.723L1115.7 104.794L1113.17 104.901Z" fill="white"/>
<path d="M1137.42 118.646C1136.94 118.655 1136.47 118.573 1136.06 118.409C1135.59 118.222 1135.22 117.945 1134.99 117.613C1134.76 117.29 1134.58 116.951 1134.46 116.603C1134.34 116.285 1134.26 115.958 1134.25 115.629C1134.22 115.503 1134.22 115.374 1134.25 115.249C1134.53 113.668 1134.97 112.103 1135.59 110.568L1136.27 109.249C1136.42 108.861 1136.47 108.459 1136.41 108.061V107.918C1136.41 107.645 1136.56 107.38 1136.84 107.182C1137.36 106.854 1137.75 106.447 1138 105.994C1138.21 105.613 1138.52 105.103 1138.94 104.449C1139.22 104.006 1139.54 103.577 1139.91 103.166C1140.23 102.822 1140.51 102.501 1140.77 102.18L1141.39 101.455C1141.73 101.067 1142.14 100.712 1142.62 100.398C1143.48 99.4173 1144.57 98.5383 1145.85 97.7961C1146.56 97.3446 1146.98 97.0595 1147.15 96.9169C1147.39 96.8141 1147.65 96.7417 1147.93 96.7032L1148.75 96.5487L1149.91 96.311C1150.09 96.311 1150.41 96.311 1150.9 96.4655C1151.31 96.5976 1151.66 96.7883 1151.95 97.024C1152.33 97.4806 1152.57 97.9868 1152.64 98.509C1152.63 98.8412 1152.54 99.1701 1152.37 99.4832C1152.2 99.8515 1151.88 100.434 1151.39 101.241C1150.09 103.072 1148.15 104.659 1145.73 105.863C1144.68 106.592 1143.5 107.227 1142.21 107.752C1141.47 108.062 1140.7 108.333 1139.89 108.56C1139.65 108.625 1139.43 108.729 1139.25 108.864C1139.08 108.998 1138.96 109.159 1138.89 109.332C1138.76 109.574 1138.66 109.825 1138.61 110.081C1138.59 110.284 1138.49 110.48 1138.33 110.651C1137.91 111.378 1137.62 112.135 1137.47 112.908C1137.16 113.83 1136.96 114.768 1136.87 115.712C1136.84 115.87 1136.84 116.029 1136.87 116.187C1136.9 116.253 1136.96 116.314 1137.02 116.365C1137.09 116.416 1137.18 116.457 1137.27 116.484C1137.63 116.436 1137.97 116.325 1138.24 116.163C1138.59 115.943 1138.9 115.7 1139.17 115.439C1139.91 114.746 1140.5 113.986 1140.93 113.181C1141.04 112.919 1141.13 112.654 1141.19 112.385C1141.25 112.129 1141.35 111.877 1141.49 111.637C1141.49 110.841 1141.49 110.33 1141.49 110.092C1141.45 109.799 1141.35 109.511 1141.19 109.237C1141.33 109.171 1141.45 109.095 1141.56 109.011C1141.62 108.977 1141.68 108.952 1141.75 108.938C1141.82 108.923 1141.9 108.92 1141.97 108.928C1142.77 109.106 1143.48 109.436 1144.01 109.879C1144.1 109.956 1144.17 110.049 1144.2 110.148C1144.23 110.248 1144.23 110.351 1144.18 110.449C1144.08 110.965 1144.03 111.485 1144.01 112.005C1143.92 112.16 1143.78 112.504 1143.57 113.051C1143.55 113.34 1143.46 113.625 1143.3 113.894C1142.79 114.726 1142.43 115.284 1142.2 115.581C1141.58 116.487 1140.7 117.297 1139.59 117.957L1138.17 118.623L1137.42 118.646ZM1140.77 106.208C1140.93 106.203 1141.08 106.17 1141.2 106.111C1141.33 106.052 1141.43 105.97 1141.49 105.875C1143.37 104.917 1145.13 103.86 1146.77 102.715C1147.93 101.984 1148.85 101.092 1149.46 100.101L1149.93 99.4118C1150.12 99.1624 1150.25 98.8937 1150.32 98.6159L1150.14 97.6773C1149.46 97.9135 1148.81 98.1878 1148.19 98.4971C1147.56 98.8622 1146.97 99.2594 1146.43 99.6852C1145.26 100.659 1144.17 101.674 1143.16 102.727C1142.04 103.807 1141.06 104.947 1140.21 106.136L1140.77 106.208Z" fill="white"/>
<path d="M1146.98 117.767C1146.64 117.409 1146.45 117.001 1146.41 116.579L1147.03 115.165L1147.84 113.134C1148.13 112.805 1148.34 112.448 1148.47 112.076C1148.63 111.661 1148.72 111.423 1148.75 111.352C1149.03 110.924 1149.61 109.89 1150.51 108.251L1151.34 106.695L1151.69 106.053C1151.82 105.789 1151.93 105.519 1152.02 105.245C1152.02 105.087 1152.08 104.931 1152.2 104.794C1152.32 104.663 1152.43 104.604 1152.55 104.604C1152.66 104.54 1152.79 104.492 1152.93 104.463C1153.07 104.435 1153.21 104.426 1153.36 104.437C1153.67 104.437 1153.96 104.592 1154.18 104.913C1154.4 105.191 1154.52 105.5 1154.54 105.815C1154.48 106.223 1154.34 106.624 1154.11 107.003C1153.85 107.538 1153.55 108.085 1153.23 108.619C1152.92 109.154 1152.76 109.451 1152.57 109.807C1152.37 110.164 1152.32 110.389 1152.41 110.461L1153.15 110.176C1153.56 110.012 1153.94 109.825 1154.31 109.617C1154.57 109.512 1154.81 109.393 1155.05 109.261L1155.66 108.94C1156.16 108.645 1156.71 108.387 1157.29 108.168L1158.28 107.693C1158.81 107.431 1159.07 107.277 1159.11 107.253C1159.36 107.14 1159.66 107.071 1159.97 107.051C1160.06 107.052 1160.14 107.064 1160.23 107.089C1160.31 107.113 1160.38 107.149 1160.44 107.194C1160.63 107.319 1160.81 107.454 1160.97 107.597C1161.12 107.735 1161.21 107.901 1161.21 108.073C1161.2 108.258 1161.08 108.432 1160.88 108.56C1160.51 108.795 1160.12 109.014 1159.7 109.213C1159.33 109.416 1158.94 109.607 1158.54 109.784L1157.38 110.33C1155.31 111.316 1154.24 111.851 1154.18 111.91C1154.13 111.969 1154.38 112.207 1154.59 112.516C1154.78 112.797 1154.99 113.07 1155.22 113.336L1155.87 114.203C1156.11 114.429 1156.28 114.683 1156.38 114.951C1156.59 115.438 1156.95 115.888 1157.44 116.27C1157.62 116.411 1157.84 116.524 1158.09 116.604C1158.34 116.684 1158.62 116.728 1158.89 116.733C1159.21 116.727 1159.52 116.67 1159.79 116.567C1160.11 116.455 1160.47 116.386 1160.83 116.365C1161.23 116.365 1161.51 116.543 1161.65 116.912C1161.73 117.004 1161.77 117.105 1161.78 117.209C1161.78 117.304 1161.58 117.506 1161.18 117.814C1160.92 118.065 1160.58 118.274 1160.18 118.426C1159.79 118.578 1159.35 118.669 1158.89 118.694C1158.58 118.682 1158.26 118.625 1157.98 118.527C1157.56 118.527 1157.01 118.325 1156.36 117.85C1155.38 117.075 1154.48 116.253 1153.67 115.391C1153.57 115.087 1153.41 114.792 1153.2 114.512C1153.09 114.318 1152.95 114.131 1152.79 113.953C1152.65 113.787 1152.57 113.668 1152.5 113.597C1152.48 113.469 1152.41 113.346 1152.3 113.241L1152.02 112.896C1151.91 112.85 1151.78 112.826 1151.64 112.826C1151.51 112.826 1151.38 112.85 1151.27 112.896C1151.06 113.036 1150.89 113.196 1150.76 113.371C1150.6 113.573 1150.47 113.716 1150.39 113.811C1150.04 114.513 1149.75 115.226 1149.53 115.949C1149.28 116.479 1149.18 117.034 1149.23 117.589C1149.26 117.84 1149.18 118.093 1149 118.313C1148.88 118.387 1148.74 118.442 1148.58 118.475C1148.43 118.508 1148.26 118.517 1148.1 118.503C1147.63 118.34 1147.23 118.083 1146.98 117.767V117.767Z" fill="white"/>
<path d="M1176.6 107.396C1176.44 108.14 1176.09 108.86 1175.56 109.522C1175.34 110.014 1175.09 110.498 1174.8 110.972C1174.64 111.28 1174.43 111.575 1174.17 111.851L1173.19 113.633C1172.75 114.381 1172.22 115.248 1171.59 116.234C1170.81 117.494 1170.27 118.42 1169.95 119.026L1169.39 119.739C1168.39 121.041 1167.28 122.302 1166.07 123.517C1165.06 124.331 1163.81 124.988 1162.39 125.442C1161.96 125.532 1161.51 125.577 1161.06 125.572C1160.11 125.578 1159.17 125.41 1158.35 125.085C1157.99 124.975 1157.68 124.81 1157.43 124.604C1157.18 124.398 1157 124.156 1156.91 123.897C1156.9 123.716 1156.98 123.538 1157.12 123.386C1157.17 123.315 1157.25 123.253 1157.35 123.208C1157.45 123.162 1157.56 123.134 1157.68 123.125C1157.75 123.122 1157.82 123.132 1157.89 123.155C1157.95 123.178 1158 123.213 1158.03 123.256C1158.34 123.419 1158.69 123.551 1159.05 123.648C1159.51 123.769 1160 123.83 1160.49 123.826C1160.77 123.838 1161.05 123.838 1161.32 123.826C1162 123.666 1162.61 123.388 1163.08 123.018C1163.73 122.561 1164.32 122.064 1164.84 121.533C1166 120.166 1167.05 118.758 1167.98 117.316C1167.5 117.182 1167.1 116.949 1166.82 116.65C1166.46 116.314 1166.16 115.946 1165.94 115.557C1165.75 115.296 1165.67 115.005 1165.7 114.714V114.345C1165.43 114.345 1165.24 113.965 1165.08 113.157C1164.91 112.275 1164.83 111.386 1164.84 110.496C1164.84 110.116 1164.84 109.629 1164.92 109.047C1165.04 108.608 1165.11 108.163 1165.12 107.716C1165.12 107.182 1165.12 106.837 1165.12 106.683V106.552C1165.1 106.355 1165.14 106.158 1165.22 105.97C1165.3 105.85 1165.43 105.747 1165.59 105.673C1165.8 105.581 1166.05 105.532 1166.3 105.53C1167.09 105.53 1167.49 106.362 1167.49 108.037C1167.49 108.275 1167.49 108.762 1167.4 109.486C1167.4 109.795 1167.4 110.271 1167.4 110.9C1167.38 111.94 1167.51 112.978 1167.79 114.001C1167.9 114.681 1168.31 115.325 1168.95 115.854L1169.21 115.391C1169.39 114.959 1169.64 114.54 1169.95 114.143C1170.23 113.736 1170.46 113.315 1170.64 112.884C1170.76 112.617 1170.92 112.358 1171.11 112.112L1171.67 111.197L1172.24 109.902C1172.49 109.297 1172.8 108.705 1173.19 108.132C1173.29 107.954 1173.47 107.692 1173.7 107.336C1173.92 106.98 1174.12 106.742 1174.26 106.576C1174.37 106.45 1174.54 106.347 1174.73 106.279C1174.98 106.124 1175.15 106.041 1175.3 106.041C1175.52 106.076 1175.73 106.145 1175.91 106.243C1176.35 106.555 1176.59 106.967 1176.6 107.396V107.396Z" fill="white"/>
<path d="M1183.15 118.017C1182.39 117.993 1181.65 117.868 1180.96 117.648C1180.82 117.648 1180.59 117.553 1180.27 117.339C1179.97 117.156 1179.73 116.929 1179.58 116.674C1179.14 116.112 1178.93 115.481 1178.97 114.845C1179.05 113.438 1179.47 112.049 1180.22 110.734C1180.67 110.029 1181.2 109.346 1181.8 108.691C1182.19 108.164 1182.69 107.68 1183.29 107.253C1183.5 107.201 1183.7 107.141 1183.89 107.075L1184.96 106.683C1185.41 106.52 1185.9 106.438 1186.41 106.445C1187.04 106.484 1187.65 106.645 1188.16 106.909C1188.8 107.185 1189.35 107.545 1189.78 107.966C1189.96 108.11 1190.09 108.277 1190.16 108.457C1190.24 108.637 1190.26 108.826 1190.22 109.011C1190.09 109.176 1189.91 109.324 1189.71 109.451L1189.01 109.986C1188.95 110.041 1188.87 110.086 1188.77 110.117C1188.68 110.148 1188.58 110.164 1188.48 110.164C1188.34 110.159 1188.21 110.133 1188.09 110.088C1187.97 110.043 1187.87 109.979 1187.79 109.902C1187.58 109.702 1187.46 109.462 1187.44 109.213C1187.34 109.033 1187.15 108.88 1186.91 108.774C1186.72 108.662 1186.51 108.563 1186.28 108.477C1186.05 108.477 1185.72 108.631 1185.32 108.94C1184.21 109.937 1183.23 110.998 1182.4 112.112C1182 112.773 1181.67 113.452 1181.41 114.144C1181.36 114.296 1181.36 114.454 1181.41 114.607C1181.41 114.858 1181.45 115.109 1181.52 115.355C1181.54 115.523 1181.62 115.685 1181.75 115.831C1181.89 115.85 1182.04 115.85 1182.19 115.831C1183.14 115.801 1184.09 115.713 1185.02 115.569C1185.99 115.451 1186.93 115.264 1187.85 115.011C1188.38 114.708 1189.05 114.532 1189.75 114.512C1189.88 114.496 1190.03 114.496 1190.17 114.512C1190.54 114.643 1190.73 114.797 1190.73 114.975C1190.73 115.154 1190.31 115.629 1189.48 115.997C1189.04 116.173 1188.62 116.376 1188.23 116.603C1187.88 116.809 1187.71 116.963 1187.71 117.066C1187.59 117.084 1187.47 117.116 1187.37 117.161C1187.2 117.161 1187.07 117.233 1187.02 117.161C1186.52 117.21 1186.02 117.289 1185.54 117.399C1185.1 117.476 1184.67 117.588 1184.26 117.731C1183.93 117.889 1183.55 117.987 1183.15 118.017Z" fill="white"/>
<path d="M1044.95 76.2812C1044.95 76.0767 1045.05 75.878 1045.25 75.7231C1045.29 75.8256 1045.29 75.9345 1045.23 76.0345C1045.18 76.1346 1045.08 76.2209 1044.95 76.2812V76.2812Z" fill="#E82829"/>
<path d="M1044.95 76.2812C1044.95 76.0767 1045.05 75.878 1045.25 75.7231C1045.29 75.8256 1045.29 75.9345 1045.23 76.0345C1045.18 76.1346 1045.08 76.2209 1044.95 76.2812V76.2812Z" fill="white"/>
<path d="M1044.95 76.2812C1044.96 76.5643 1044.93 76.8473 1044.85 77.1251C1044.71 77.2796 1044.55 77.2796 1044.41 77.1251C1044.4 77.0579 1044.4 76.9902 1044.41 76.923C1044.34 76.614 1044.67 76.4595 1044.95 76.2812Z" fill="#E82829"/>
<path d="M1044.95 76.2812C1044.95 76.0767 1045.05 75.878 1045.25 75.7231C1045.29 75.8256 1045.29 75.9345 1045.23 76.0345C1045.18 76.1346 1045.08 76.2209 1044.95 76.2812V76.2812Z" fill="#E82829"/>
<path d="M963.812 124.872C963.391 124.872 962.951 124.872 962.512 124.801C962.33 124.805 962.152 124.763 962.013 124.684C961.873 124.605 961.782 124.494 961.756 124.372V124.372C962.132 124.346 962.512 124.377 962.869 124.463C963.225 124.55 963.547 124.689 963.812 124.872V124.872Z" fill="#010101"/>
<path d="M966.361 124.384C966.133 125.085 965.377 124.717 964.867 124.86C965.184 124.361 965.746 124.384 966.326 124.384H966.361Z" fill="#010101"/>
<path d="M797.26 33.6433C796.742 30.7942 795.555 28.0191 793.744 25.4223C791.699 22.3668 787.982 19.9654 783.373 18.7219C780.047 17.852 776.45 17.562 772.914 17.8784C769.249 18.1882 765.685 18.9067 762.367 20.0049C761.875 20.1712 761.418 20.5157 760.733 20.2781C760.706 20.0686 760.706 19.8581 760.733 19.6486C762.104 14.2193 762.297 8.68306 763.229 3.20629C763.315 2.89433 763.301 2.57367 763.188 2.26568C763.075 1.95768 762.865 1.66954 762.574 1.42078C762.283 1.17201 761.916 0.968319 761.498 0.823432C761.08 0.678545 760.621 0.595818 760.152 0.580811C759.51 0.586751 758.876 0.679805 758.288 0.854467C757.7 1.02913 757.169 1.28179 756.728 1.59756C756.287 1.91333 755.945 2.28582 755.721 2.69277C755.496 3.09971 755.396 3.53285 755.424 3.96664C755.424 4.63193 755.424 5.30918 755.283 5.97447C754.721 9.3128 754.229 12.651 753.526 15.9656C753.464 17.3772 753.091 18.7747 752.418 20.1118C751.13 19.7491 749.909 19.2867 748.779 18.7338C746.56 17.783 744.033 17.2083 741.414 17.0586C739.119 17.0254 736.826 17.1648 734.576 17.4744C728.232 18.4906 722.346 20.5286 717.42 23.4145C708.076 28.7204 700.964 35.596 696.801 43.3495C694.408 47.4894 693.007 51.8608 692.652 56.299C692.339 59.7402 692.904 63.1922 694.322 66.504C695.984 70.284 698.9 73.7581 702.848 76.6616C708.832 81.1979 716.865 84.2717 725.699 85.4054C727.457 85.6431 729.215 85.7499 731.201 85.94C730.744 87.6745 730.305 89.3378 729.883 91.0129C729.461 92.688 728.916 94.5175 728.6 96.2995C727.984 99.9348 731.764 102.715 736.387 102.05C740.025 101.515 742.311 99.7686 743.313 97.0124C743.594 96.2165 743.717 95.3967 743.928 94.6364C744.613 91.7733 745.369 88.9219 746.002 86.0469C746.195 85.1915 746.67 84.7401 747.76 84.5856C750.682 84.1201 753.536 83.4759 756.285 82.6611C768.158 79.3035 778.349 73.7068 785.641 66.5397C786.608 65.6012 787.539 64.6388 788.418 63.629C796.45 54.6367 799.578 44.0296 797.26 33.6433ZM738.285 74.7133C738.285 75.2954 738.285 75.9013 738.285 76.4953C738.307 76.5989 738.298 76.7044 738.257 76.8054C738.216 76.9063 738.144 77.0005 738.047 77.0819C737.949 77.1633 737.828 77.2303 737.691 77.2786C737.553 77.3269 737.403 77.3554 737.248 77.3625C736.387 77.4457 735.49 77.5882 734.699 77.6476C733.451 77.7308 732.221 77.7546 730.973 77.8021C726.203 78.0354 721.452 77.2004 717.455 75.4261C712.517 73.3199 708.681 70.2203 706.486 66.5635C704.827 63.6485 704.056 60.537 704.219 57.4156C704.288 55.1065 704.808 52.8136 705.766 50.5964C708.273 44.2507 712.891 38.3753 719.266 33.4177C721.59 31.608 724.29 30.0353 727.281 28.7487C729.369 27.8948 731.623 27.243 733.979 26.8122C736.04 26.4094 738.222 26.3738 740.31 26.709C742.398 27.0441 744.323 27.7386 745.897 28.7249C746.187 28.8777 746.4 29.0883 746.504 29.3271C746.608 29.5658 746.598 29.8207 746.477 30.0557C745.527 33.2237 744.613 36.4274 743.734 39.6667C741.696 47.0522 740.212 54.5026 739.287 61.9895C739.094 63.5101 738.953 65.0309 738.848 66.5635C738.531 69.2603 738.408 71.9808 738.285 74.7133ZM776.061 66.3971L775.867 66.5159C769.49 70.331 761.881 73.0854 753.649 74.5588C752.066 74.8558 750.484 75.129 748.885 75.3547C748.463 75.4783 748.008 75.5421 747.549 75.5421C747.089 75.5421 746.635 75.4783 746.213 75.3547C746.775 73.5608 747.338 71.7908 747.971 69.985L749.078 66.5278C751.574 58.7106 754.07 50.8935 756.654 43.0763C757.604 40.2013 758.869 37.3739 759.942 34.5107C760.205 33.8454 762.35 29.4022 764.969 28.5706C768.983 27.1042 773.53 26.4367 778.082 26.6459C779.624 26.7226 781.117 27.0446 782.44 27.5855C783.763 28.1264 784.878 28.8711 785.694 29.7586C788.243 32.4007 789.878 35.3976 790.475 38.5261C793.059 50.1212 787.504 59.2809 776.026 66.4209L776.061 66.3971Z" fill="white" stroke="black" stroke-width="0.1" stroke-miterlimit="10"/>
<path d="M1013.58 56.0019C1013.36 52.3218 1011.58 48.7619 1008.44 45.7493C1008.2 45.5224 1007.93 45.3079 1007.64 45.1077C1006.81 44.4516 1005.74 43.9571 1004.53 43.6751C1003.33 43.3931 1002.03 43.334 1000.78 43.5039C998.448 43.8266 996.301 44.5933 994.593 45.7136C993.17 46.6272 991.891 47.6386 990.778 48.7313C990.427 49.052 990.269 49.5509 989.46 49.5509C989.265 48.9229 989.32 48.2712 989.618 47.662C992.536 37.4688 995.466 27.2796 998.407 17.0943C998.63 16.4403 998.713 15.7681 998.653 15.0983C998.685 14.6386 998.487 14.185 998.092 13.8102C997.697 13.4354 997.127 13.161 996.474 13.0312C995.804 12.8866 995.079 12.9104 994.433 13.0982C993.787 13.2859 993.263 13.6249 992.958 14.0528C992.343 14.9148 991.934 15.8371 991.745 16.7854C989.19 25.4975 986.653 34.2097 984.134 42.9218C983.985 43.5002 983.761 44.0686 983.466 44.6206C983.158 44.5129 982.874 44.377 982.622 44.2167C981.59 43.368 980.24 42.7219 978.712 42.3458C977.185 41.9697 975.536 41.8774 973.938 42.0784C969.803 42.4943 966.044 43.9338 963.391 46.1175C960.526 48.3296 958.285 50.8787 956.782 53.6378C954.382 57.7583 952.809 62.0775 952.106 66.4802C951.67 69.2418 951.535 72.0214 951.702 74.7964C951.785 77.3955 952.54 79.9649 953.934 82.3878C954.584 83.7444 955.698 84.9784 957.186 85.9898C958.673 87.0011 960.492 87.7615 962.495 88.2092C965.165 88.7969 968.055 88.738 970.669 88.0428C971.231 87.8884 971.794 87.3418 972.62 87.9834C971.653 91.6781 970.686 95.4799 969.649 99.2578C967.962 105.459 966.245 111.657 964.499 117.85C963.855 119.561 964.194 121.374 965.448 122.923C965.81 122.905 966.173 122.941 966.513 123.027C966.853 123.113 967.161 123.248 967.417 123.422C967.768 123.101 968.12 123.03 968.472 123.422C968.788 122.923 969.351 122.947 969.931 122.947C971.502 121.771 972.4 120.254 972.462 118.67C972.462 118.302 972.673 117.945 972.743 117.577C975.063 107.206 977.841 96.9174 980.46 86.5935C980.46 86.2608 980.565 85.8569 981.216 85.6906C981.743 86.0589 982.288 86.4628 982.868 86.8786C984.136 87.7254 985.765 88.2821 987.526 88.4705C989.239 88.6457 990.985 88.6054 992.677 88.3517C996.788 87.6556 1000.41 86.0077 1002.91 83.6946C1005.9 81.0585 1008.16 78.0753 1009.57 74.8915C1010.85 72.1718 1011.83 69.3923 1012.5 66.5754C1013.35 63.0814 1013.71 59.5413 1013.58 56.0019V56.0019ZM977.349 75.3547C976.522 79.192 973.059 81.0335 968.806 82.1146C966.134 82.7918 963.954 81.9364 962.495 80.0118C961.439 78.5457 960.84 76.9484 960.737 75.3192C960.649 74.4282 960.737 73.5252 960.737 72.6342C960.821 70.5939 961.085 68.5587 961.528 66.5397C962.486 62.1965 964.308 57.9606 966.942 53.9467C967.772 52.5632 968.963 51.2916 970.458 50.1925C971.71 49.2312 973.445 48.6176 975.327 48.4699C975.821 48.4401 976.318 48.507 976.758 48.6629C977.197 48.8189 977.561 49.0571 977.806 49.349C978.627 50.2142 979.194 51.1781 979.476 52.1883C979.968 53.9347 980.319 55.7524 980.741 57.4632C980.935 58.579 980.882 59.7081 980.583 60.8133C980.161 62.7142 979.722 64.627 979.265 66.5397C978.702 69.486 978.034 72.4203 977.349 75.3547ZM1005.47 71.7906C1004.36 75.5537 1001.71 79.0313 997.827 81.8295C996.799 82.5728 995.615 83.2093 994.312 83.7184C990.796 84.9777 987.685 84.1817 985.927 81.4493C984.852 79.7404 984.256 77.9116 984.169 76.0557C984.115 75.7638 984.115 75.4685 984.169 75.1766C984.942 72.4085 985.716 69.6523 986.524 66.8605L986.63 66.5635C986.807 66.0168 987.03 65.4773 987.298 64.9478C988.787 61.8248 990.584 58.7726 992.677 55.8118C993.675 54.3884 994.851 53.0252 996.192 51.737C996.938 50.9883 997.865 50.3296 998.935 49.7886C1001.13 48.7194 1002.61 48.9094 1004.12 50.5014C1004.62 51.0521 1005.05 51.6326 1005.4 52.2359C1007.16 54.9683 1007.64 57.5701 1007.27 62.6667C1007.27 63.6765 1007.04 65.0428 1006.74 66.5635C1006.46 68.3043 1006.03 70.0334 1005.47 71.7432V71.7906Z" fill="white" stroke="black" stroke-width="0.1" stroke-miterlimit="10"/>
<path d="M838.762 73.6204C838.973 71.2444 839.243 68.8683 839.571 66.4922C840.354 60.4046 841.805 54.3648 843.912 48.4224C844.093 47.9962 844.205 47.5581 844.246 47.1156C844.364 46.6998 844.25 46.2691 843.925 45.907C843.6 45.5449 843.089 45.2772 842.489 45.1553C841.851 45.0733 841.204 45.0296 840.555 45.0247C840.414 44.2406 840.362 43.5634 840.186 42.9218C840.119 42.0438 839.573 41.2136 838.655 40.5908C837.737 39.9679 836.51 39.5965 835.211 39.5479C833.167 39.4454 831.133 39.8184 829.446 40.6051C827.073 41.6569 824.916 42.9152 823.03 44.3474C814.348 50.8202 807.529 58.3301 802.92 66.4922C802.639 66.9675 802.375 67.4428 802.112 67.918C800.718 70.4054 799.779 72.9987 799.317 75.6401C798.872 77.5628 799.003 79.5263 799.703 81.4139C799.976 82.4437 800.729 83.3876 801.851 84.1079C802.974 84.8281 804.408 85.287 805.944 85.4176C807.53 85.567 809.146 85.4703 810.669 85.1348C812.192 84.7993 813.581 84.2337 814.733 83.4811C815.994 82.6709 817.169 81.8014 818.248 80.8792C822.509 77.3776 826.409 73.6821 829.92 69.8188C830.202 69.498 830.307 68.9514 831.256 68.9871C831.133 70.0088 831.063 71.0425 830.852 72.0642C830.55 73.8424 830.432 75.6328 830.5 77.4222C830.508 78.62 830.874 79.8044 831.574 80.9046C832.275 82.0048 833.297 82.9982 834.578 83.8255C835.125 84.2074 835.781 84.5099 836.506 84.7142C837.232 84.9185 838.011 85.0203 838.797 85.0135C839.607 85.0275 840.4 84.852 841.041 84.5164C841.681 84.1808 842.131 83.706 842.313 83.1722C842.631 82.6221 842.708 82.022 842.537 81.4429C842.366 80.8639 841.952 80.3303 841.346 79.9051C840.81 79.5128 840.222 79.1549 839.588 78.8359C839.234 78.6793 838.955 78.4569 838.783 78.1956C838.612 77.9343 838.556 77.6451 838.621 77.3627C838.692 76.1628 838.639 74.8916 838.762 73.6204ZM810.778 76.341C810.092 76.8162 809.53 77.5291 808.369 77.5291C808.478 75.2976 809.016 73.0851 809.969 70.9473C810.625 69.4504 811.328 67.9773 812.078 66.5279C815.22 60.3962 819.725 54.6235 825.438 49.4084C826.873 48.0468 828.569 46.8204 830.483 45.7612C831.373 45.2296 832.414 44.8255 833.541 44.5732C833.975 44.4859 834.442 44.515 834.844 44.6544C835.247 44.7938 835.555 45.0328 835.703 45.3217C836.124 45.9293 836.288 46.6035 836.178 47.2701C836.063 48.228 835.737 49.1689 835.211 50.0619C831.84 55.8298 827.599 61.3476 822.555 66.5279C819.099 70.0444 815.156 73.3303 810.778 76.341V76.341Z" fill="white" stroke="black" stroke-width="0.1" stroke-miterlimit="10"/>
<path d="M942.893 49.2896C941.909 49.2896 941.505 48.9927 941.434 48.2917C941.434 47.9235 941.346 47.5432 941.258 47.1749C941.176 46.4395 940.758 45.7396 940.062 45.1714C939.367 44.6033 938.427 44.1951 937.374 44.003C936.264 43.7949 935.091 43.7949 933.981 44.003C932.274 44.3406 930.684 44.906 929.305 45.6661C927.134 46.8119 925.138 48.1013 923.346 49.5153C916.736 54.6244 911.307 60.3804 907.245 66.5873C906.454 67.7753 905.698 68.9634 904.995 70.1514C903.959 71.9288 903.119 73.7553 902.481 75.6163C901.606 78.0078 901.333 80.4816 901.672 82.9344C902.165 86.047 904.608 87.9478 908.581 88.2805C910.088 88.404 911.617 88.2915 913.05 87.9516C914.482 87.6117 915.78 87.0535 916.842 86.3204C918.325 85.3495 919.71 84.3137 920.991 83.2196C924.665 80.1273 928.046 76.8815 931.116 73.5015C931.485 73.1095 931.661 72.5036 932.61 72.4918C932.504 73.0976 932.434 73.6798 932.329 74.2738C932.003 76.3532 931.862 78.4439 931.907 80.5347C931.925 81.6618 932.273 82.7752 932.93 83.811C933.588 84.8468 934.543 85.7845 935.739 86.5698C936.764 87.3002 938.142 87.7594 939.624 87.8647C940.483 87.9471 941.356 87.812 942.077 87.4852C942.797 87.1584 943.313 86.6631 943.526 86.0946C943.874 85.5161 943.959 84.8808 943.771 84.2695C943.584 83.6581 943.131 83.0983 942.471 82.6612C941.969 82.3238 941.429 82.014 940.854 81.7346C940.553 81.5874 940.315 81.3889 940.163 81.1595C940.012 80.93 939.953 80.6775 939.993 80.4277C939.993 79.9049 939.993 79.3823 939.993 78.8595C940.047 74.8863 940.458 70.9189 941.223 66.9793C941.223 66.813 941.223 66.6466 941.223 66.4922C941.857 62.1421 942.938 57.8271 944.458 53.5784C944.728 52.9417 944.945 52.2952 945.108 51.6419C945.442 50.4776 945.178 49.2896 942.893 49.2896ZM911.833 80.0595C911.534 80.2154 911.216 80.3544 910.883 80.4752C910.764 78.9032 911.037 77.3288 911.692 75.8181C912.876 72.6801 914.373 69.6 916.174 66.5991C919.169 61.6167 923.142 56.9295 927.987 52.6636C929.504 51.2622 931.379 50.0552 933.524 49.0995C936.178 47.9828 937.514 49.0163 937.444 51.1548C937.427 51.9659 937.207 52.7693 936.794 53.5308C934.196 58.0523 931.057 62.4229 927.407 66.5991C923.105 71.5071 917.869 76.0126 911.833 80V80.0595Z" fill="white" stroke="black" stroke-width="0.1" stroke-miterlimit="10"/>
<path d="M1063.2 46.2719C1063.13 47.2389 1062.94 48.2004 1062.64 49.1469C1062.18 50.5963 1061.67 52.0338 1061.09 53.4595C1059.47 57.762 1058.22 62.1257 1057.36 66.5277L1057.15 67.4187C1056.26 71.5293 1055.37 75.6478 1054.48 79.7742C1054.34 80.4395 1054.2 81.1047 1054.11 81.77C1054.02 82.2068 1054.05 82.6521 1054.21 83.0803C1054.37 83.5084 1054.65 83.911 1055.04 84.2648C1055.63 84.7506 1055.98 85.3458 1056.05 85.9703C1056.12 86.5947 1055.9 87.2185 1055.43 87.7577V87.7577C1055.08 87.8765 1053.67 88.5892 1053.21 88.7318C1052.5 88.9573 1051.68 88.9869 1050.93 88.8143C1050.18 88.6417 1049.55 88.2803 1049.19 87.8052C1047.99 86.689 1047.28 85.3677 1047.13 83.9916C1047.07 82.3168 1047.24 80.6418 1047.66 78.99C1047.89 77.9089 1048.2 76.8279 1048.49 75.7468C1048.57 75.469 1048.6 75.1862 1048.59 74.9033C1048.72 74.8429 1048.82 74.7566 1048.87 74.6565C1048.93 74.5564 1048.93 74.4473 1048.89 74.3448C1048.69 74.4998 1048.59 74.6987 1048.59 74.9033C1048.31 75.0815 1047.98 75.2359 1048.01 75.5448C1048 75.6119 1048 75.6796 1048.01 75.7468C1047.47 76.5309 1046.89 77.3031 1046.38 78.1228C1045.04 80.2424 1043.41 82.2744 1041.52 84.1936C1040.04 85.7832 1038.14 87.1794 1035.92 88.316C1033.83 89.4119 1031.23 89.9754 1028.59 89.9079C1027.13 89.8626 1025.72 89.5643 1024.49 89.0418C1023.26 88.5194 1022.25 87.7906 1021.56 86.9261C1020.16 85.34 1019.37 83.5428 1019.27 81.6988C1019.08 78.5665 1019.37 75.4295 1020.13 72.3371C1020.57 70.4007 1021.12 68.488 1021.73 66.5872C1022.94 62.7736 1024.42 59.0194 1025.88 55.2653C1027.09 52.495 1027.99 49.6675 1028.57 46.8066C1028.65 46.0289 1029.08 45.2869 1029.81 44.6813C1030.54 44.0756 1031.52 43.6356 1032.63 43.4207C1033.25 43.2783 1033.92 43.2939 1034.53 43.4647C1035.13 43.6354 1035.62 43.9494 1035.9 44.3473C1036.76 45.2953 1037.19 46.395 1037.13 47.5075C1037.05 49.068 1036.71 50.6178 1036.13 52.1289C1034.65 55.8355 1033.15 59.5302 1031.61 63.2131C1031.14 64.3298 1030.7 65.4585 1030.27 66.5872C1029.38 68.9709 1028.67 71.3862 1028.17 73.8222C1027.8 75.7468 1027.6 77.6832 1027.37 79.6078C1027.29 80.1289 1027.29 80.6549 1027.37 81.176C1027.85 83.1956 1030.5 84.2055 1032.88 83.3026C1034 82.8223 1034.97 82.206 1035.76 81.4849C1037.18 80.2484 1038.46 78.942 1039.59 77.5764C1042.56 74.0401 1045.15 70.3681 1047.36 66.5872C1048.13 65.316 1048.87 64.0328 1049.61 62.7616C1051.58 59.352 1053.13 55.8354 1054.88 52.3426C1055.56 50.8009 1056.41 49.2959 1057.42 47.8401C1057.93 47.0566 1058.61 46.328 1059.44 45.6779C1059.82 45.3609 1060.32 45.1224 1060.9 44.9889C1061.18 44.9245 1061.48 44.91 1061.78 44.9467C1062.07 44.9833 1062.34 45.0699 1062.57 45.1983C1062.8 45.3267 1062.98 45.4926 1063.09 45.6805C1063.2 45.8683 1063.24 46.0718 1063.2 46.2719V46.2719Z" fill="white" stroke="black" stroke-width="0.1" stroke-miterlimit="10"/>
<path d="M1154.59 53.5428C1154.44 51.4749 1153.75 49.4408 1152.57 47.5315C1151.98 46.4711 1150.95 45.5489 1149.6 44.8779C1148.25 44.207 1146.64 43.8162 1144.97 43.7536C1143.92 43.7242 1142.87 43.7841 1141.84 43.9318C1138.13 44.4936 1134.8 45.8777 1132.39 47.8642C1129.1 50.3788 1126.4 53.2145 1124.37 56.2753C1122.13 59.5617 1120.42 63.0035 1119.27 66.5398C1118.27 69.5705 1117.69 72.6562 1117.52 75.7589C1117.32 78.8762 1118.27 81.9779 1120.28 84.7878C1120.97 85.8921 1122.06 86.8608 1123.45 87.6042C1124.84 88.3476 1126.49 88.8417 1128.24 89.0408C1130.16 89.2645 1132.14 89.1836 1134.01 88.8043C1135.88 88.425 1137.59 87.7576 1139.01 86.8549C1142.25 84.9505 1144.86 82.6069 1146.68 79.9762C1149.73 75.7106 1151.94 71.1935 1153.25 66.5398C1154.11 63.4365 1154.54 60.2872 1154.55 57.1307C1154.62 55.9308 1154.73 54.7309 1154.59 53.5428ZM1141.39 75.9014C1140.06 77.6794 1138.42 79.3459 1136.52 80.8672C1135.69 81.5664 1134.69 82.1583 1133.55 82.6137C1132.74 82.9395 1131.78 83.0528 1130.86 82.9323C1129.93 82.8118 1129.11 82.4659 1128.54 81.9603C1127.54 81.2044 1126.86 80.2875 1126.55 79.2991C1126.1 78.0639 1125.93 76.7911 1126.02 75.5212C1126.16 72.4952 1126.75 69.4864 1127.78 66.5398C1128.19 65.3518 1128.68 64.1638 1129.2 63.0827C1130.55 60.0819 1132.32 57.1742 1134.48 54.3983C1135.9 52.5177 1137.9 50.8617 1140.33 49.5392C1141.47 48.9096 1142.89 48.5617 1144.36 48.5532C1145.01 48.5507 1145.65 48.6869 1146.19 48.9425C1146.73 49.1981 1147.13 49.5603 1147.35 49.9788C1147.82 50.7333 1148.11 51.5365 1148.19 52.3548C1148.38 53.7567 1148.49 55.1823 1148.65 56.703C1148.56 59.3461 1148.08 61.9768 1147.22 64.5558C1146.99 65.2211 1146.75 65.8983 1146.5 66.5517C1145.3 69.784 1143.59 72.9189 1141.39 75.9014V75.9014Z" fill="white" stroke="black" stroke-width="0.1" stroke-miterlimit="10"/>
<path d="M1195.4 50.2401C1195.05 49.0199 1194.42 47.8449 1193.52 46.7591C1193 46.0963 1192.29 45.5109 1191.42 45.0376C1190.56 44.5642 1189.56 44.2125 1188.5 44.003C1186.93 43.695 1185.28 43.6461 1183.68 43.8604C1180.67 44.2739 1177.9 45.2542 1175.68 46.6879C1173.26 48.2247 1171.17 49.9796 1169.46 51.9032C1165.36 56.4086 1162.45 61.3612 1160.86 66.5397C1159.9 69.554 1159.31 72.6181 1159.11 75.6993C1158.91 78.7442 1159.78 81.7773 1161.65 84.5502C1162.24 85.5819 1163.17 86.5086 1164.37 87.2585C1165.57 88.0084 1167.01 88.5613 1168.58 88.8745C1170.31 89.2081 1172.12 89.2746 1173.9 89.069C1175.67 88.8633 1177.35 88.3908 1178.81 87.6865C1181.17 86.5932 1183.22 85.2257 1184.87 83.6473C1188.18 80.5973 1190.57 77.138 1191.91 73.4659C1192.73 71.1611 1193.45 68.8207 1194.09 66.4803C1194.72 64.1399 1195.32 61.7283 1195.84 59.2809C1196.51 56.2744 1196.36 53.2104 1195.4 50.2401V50.2401ZM1182.36 76.6141C1181.1 78.2499 1179.53 79.7709 1177.7 81.1406C1176.95 81.69 1176.1 82.173 1175.17 82.578C1174.76 82.7716 1174.3 82.9075 1173.81 82.9777C1173.32 83.0479 1172.81 83.0511 1172.32 82.9869C1171.83 82.9226 1171.36 82.7923 1170.94 82.6037C1170.53 82.4151 1170.17 82.172 1169.9 81.8889C1168.68 80.8707 1167.93 79.6302 1167.75 78.3248C1167.38 76.0947 1167.46 73.8407 1167.98 71.6245C1168.32 69.9138 1168.77 68.2268 1169.34 66.5754C1170.69 62.7345 1172.68 59.0084 1175.26 55.4673C1176.7 53.2669 1178.85 51.3111 1181.55 49.7411C1182.79 48.9618 1184.42 48.5359 1186.11 48.553C1186.66 48.5622 1187.2 48.6792 1187.66 48.8899C1188.11 49.1006 1188.47 49.3961 1188.69 49.7411C1189.16 50.3224 1189.47 50.9595 1189.59 51.6181C1189.95 53.2705 1190.14 54.9377 1190.17 56.6079C1190.19 58.9646 1189.83 61.316 1189.08 63.6172C1188.78 64.6152 1188.43 65.5893 1188.06 66.5635C1186.79 70.0614 1184.87 73.438 1182.36 76.6141V76.6141Z" fill="white" stroke="black" stroke-width="0.1" stroke-miterlimit="10"/>
<path d="M1114 83.6351C1113.98 84.2987 1113.6 84.9343 1112.92 85.4172C1110.39 87.504 1106.8 88.8868 1102.85 89.302C1101.76 89.366 1100.66 89.1978 1099.72 88.8209C1098.77 88.4439 1098.02 87.877 1097.58 87.1992C1096.58 85.8895 1095.92 84.4756 1095.63 83.0173C1095.19 81.1788 1094.99 79.319 1095.01 77.4573V75.1526C1094.06 75.3427 1093.96 75.9011 1093.68 76.3407C1091.49 79.7417 1088.52 82.8888 1084.89 85.6666C1083.23 86.9606 1081.3 88.0885 1079.17 89.0168C1077.34 89.8775 1075.24 90.4338 1073.03 90.6403C1070.82 90.8468 1068.57 90.6975 1066.47 90.2048C1066.22 90.2048 1065.57 89.9197 1065.09 89.7652C1064.81 89.6563 1064.56 89.511 1064.36 89.3376C1063.02 88.1495 1059.75 85.4884 1059.52 83.0055C1059.35 81.069 1059.93 79.6314 1062.11 78.6573C1064.29 77.6831 1067.38 78.6572 1067.85 80.7244C1067.98 81.2352 1067.96 81.7818 1068.13 82.2808C1068.23 82.7299 1068.53 83.1482 1068.99 83.4795C1069.45 83.8109 1070.04 84.0392 1070.7 84.134C1072.51 84.3835 1074.4 84.1586 1075.97 83.5045C1077.71 82.7845 1079.23 81.8587 1080.47 80.772C1083.84 77.8217 1086.64 74.5917 1088.79 71.1609C1089.79 69.6521 1090.71 68.1196 1091.53 66.5514C1093.45 62.9873 1094.94 59.1857 1096.47 55.4434C1097.47 52.9454 1098.75 50.5028 1100.3 48.137C1100.85 47.1891 1101.66 46.3217 1102.69 45.5827C1103.12 45.214 1103.7 44.9452 1104.37 44.815C1105.03 44.6848 1105.74 44.6999 1106.39 44.8581C1106.97 45.0068 1107.48 45.2725 1107.84 45.6203C1108.2 45.9681 1108.4 46.3817 1108.41 46.8064C1108.49 47.6055 1108.38 48.4082 1108.07 49.1825C1107.67 50.2517 1107.21 51.3089 1106.72 52.3544C1104.55 56.9772 1102.9 61.7029 1101.78 66.4919C1101.2 69.0105 1100.72 71.5529 1100.41 74.1191C1100.09 76.6852 1100.07 79.0374 1100.02 81.4966C1099.92 82.463 1100.14 83.4323 1100.65 84.336C1100.79 84.6288 1101.06 84.8869 1101.41 85.0774C1101.77 85.2679 1102.2 85.3821 1102.66 85.4053C1103.43 85.4778 1104.22 85.4333 1104.96 85.2751C1105.71 85.1169 1106.39 84.8489 1106.97 84.4905L1109.64 82.8153C1110.19 82.4246 1110.89 82.1416 1111.66 81.9957C1112.99 81.8056 1114.05 82.554 1114 83.6351Z" fill="white" stroke="black" stroke-width="0.1" stroke-miterlimit="10"/>
<path d="M899.317 82.2691C899.138 82.9083 898.679 83.4963 897.998 83.9562C895.663 85.7125 892.601 86.9541 889.209 87.5203C886.063 87.9836 883.795 87.0807 882.354 84.8472C881.213 82.9204 880.577 80.8741 880.473 78.8C880.332 77.3863 880.367 75.9726 880.297 74.5588C880.297 74.2262 880.543 73.8222 880.016 73.5134C879.207 73.7391 879.102 74.3925 878.785 74.8677C876.539 78.3267 873.469 81.5132 869.697 84.3006C867.097 86.3596 863.692 87.8829 859.871 88.6964C857.735 89.0758 855.5 89.1246 853.332 88.839C851.555 88.6152 849.957 87.9655 848.832 87.0094C846.913 85.4507 845.569 83.6061 844.912 81.6275C844.44 80.6665 844.526 79.6201 845.153 78.7003C845.779 77.7804 846.9 77.056 848.287 76.6736C848.823 76.5767 849.383 76.5603 849.93 76.6256C850.476 76.6908 850.994 76.8362 851.448 77.0513C851.902 77.2665 852.281 77.5462 852.558 77.8709C852.835 78.1956 853.003 78.5573 853.051 78.9307C853.156 79.3703 853.227 79.8098 853.315 80.2613C853.346 80.8247 853.672 81.3622 854.236 81.7779C854.799 82.1936 855.563 82.4604 856.391 82.5305C858.03 82.6866 859.698 82.4469 861.102 81.8533C862.946 81.1282 864.555 80.1583 865.83 79.002C869.199 76.05 871.988 72.8154 874.127 69.379C874.76 68.4524 875.34 67.5019 875.885 66.5396C878.092 62.485 879.993 58.3572 881.58 54.1722C882.59 51.6262 883.871 49.1327 885.412 46.7114C885.993 45.7092 886.812 44.7782 887.838 43.9552C888.239 43.6181 888.769 43.3615 889.37 43.2128C889.971 43.0642 890.62 43.0293 891.248 43.1117C891.913 43.1885 892.519 43.4186 892.961 43.763C893.403 44.1074 893.655 44.5448 893.674 45.0007C893.793 45.7984 893.692 46.6041 893.375 47.3767C892.813 48.7192 892.303 50.0855 891.617 51.416C889.351 56.3374 887.681 61.3754 886.625 66.4802C885.799 70.4893 885.318 74.5275 885.184 78.5744C885.116 79.6886 885.234 80.8044 885.535 81.9008C885.94 83.2551 886.854 83.8017 888.594 83.7661C889.978 83.747 891.301 83.3782 892.303 82.7325C893.199 82.186 894.061 81.5444 894.975 81.0573C895.511 80.6616 896.219 80.3912 896.996 80.2851C898.631 80.1781 899.651 81.0692 899.317 82.2691Z" fill="white" stroke="black" stroke-width="0.1" stroke-miterlimit="10"/>
<defs>
<linearGradient id="paint0_linear" x1="894.572" y1="43.2222" x2="891.487" y2="159.653" gradientUnits="userSpaceOnUse">
<stop stop-color="#EA2427"/>
<stop offset="0.16" stop-color="#E12326"/>
<stop offset="0.42" stop-color="#C92023"/>
<stop offset="0.75" stop-color="#A21A1D"/>
<stop offset="1" stop-color="#801619"/>
</linearGradient>
<linearGradient id="paint1_linear" x1="39.8092" y1="3900.26" x2="404.439" y2="3954.71" gradientUnits="userSpaceOnUse">
<stop stop-color="#EA2427"/>
<stop offset="0.16" stop-color="#E12326"/>
<stop offset="0.42" stop-color="#C92023"/>
<stop offset="0.75" stop-color="#A21A1D"/>
<stop offset="1" stop-color="#801619"/>
</linearGradient>
<linearGradient id="paint2_linear" x1="-425310" y1="351381" x2="-341702" y2="418852" gradientUnits="userSpaceOnUse">
<stop stop-color="#EA2427"/>
<stop offset="0.16" stop-color="#E12326"/>
<stop offset="0.42" stop-color="#C92023"/>
<stop offset="0.75" stop-color="#A21A1D"/>
<stop offset="1" stop-color="#801619"/>
</linearGradient>
</defs>
</svg>
