<svg width="58" height="63" viewBox="0 0 58 63" fill="none" xmlns="http://www.w3.org/2000/svg">
<path d="M8.15441 35.0647C8.34243 34.9974 8.53321 34.9339 8.72547 34.8699C9.12825 34.7358 9.53756 34.5995 9.94187 34.422C10.5319 34.1628 10.998 33.8591 11.2667 33.4652L11.6802 32.859L12.0931 33.4657C12.9356 34.7038 12.6871 36.1324 12.0823 37.3076C11.6893 38.0712 11.1247 38.7766 10.5237 39.3382C10.871 39.3572 11.2583 39.2783 11.6907 39.1315C12.0466 39.0107 12.4022 38.855 12.7647 38.6962L12.7904 38.6849C13.1507 38.5271 13.528 38.3624 13.8791 38.2566L13.8878 38.2539L13.8967 38.2516C14.5959 38.0686 15.3201 38.0094 15.99 37.9547C16.0693 37.9482 16.1477 37.9418 16.2253 37.9353C16.9794 37.8717 17.6621 37.7951 18.2881 37.5646L19.7779 37.0159L18.8714 38.3193C18.3356 39.0896 17.3525 39.5962 16.4359 39.9649C15.9648 40.1544 15.4826 40.3179 15.0431 40.4637C14.9786 40.4851 14.9153 40.5061 14.8531 40.5266C14.4849 40.6485 14.1586 40.7564 13.8863 40.8614L13.876 40.8653L13.8656 40.8689C13.618 40.952 13.468 41.003 13.3616 41.0511C13.299 41.0793 13.2736 41.0973 13.2655 41.1039C13.2612 41.1136 13.2496 41.1445 13.2378 41.2185C13.2189 41.3375 13.2084 41.5004 13.1921 41.7656L13.192 41.7679C13.1609 42.2394 13.1893 42.703 13.2287 43.195C13.2343 43.2648 13.2401 43.3353 13.246 43.4066C13.2809 43.8287 13.3179 44.2763 13.3179 44.7348C13.3179 46.8033 13.1239 48.9032 12.4707 50.9463C12.3812 51.264 12.2939 51.6498 12.197 52.0819L12.1884 52.1205C12.0942 52.5401 11.9919 52.9963 11.8739 53.4442C11.6384 54.3381 11.3166 55.3031 10.7915 55.912C10.5132 56.2574 10.1017 56.4502 9.75669 56.5863C9.61933 56.6404 9.47437 56.692 9.33839 56.7404C9.29706 56.7551 9.25657 56.7695 9.21737 56.7836C9.04253 56.8465 8.88408 56.9063 8.74073 56.9725C8.44672 57.1083 8.28295 57.2417 8.20225 57.3921C8.12917 57.5282 8.07419 57.7741 8.22383 58.2544L8.35682 58.6813L7.9474 58.861C7.45123 59.0788 7.27739 59.4837 7.10556 60.1357C7.08807 60.202 7.07058 60.2722 7.05236 60.3452C7.00609 60.5307 6.95509 60.7352 6.88742 60.945C7.10464 60.8864 7.30317 60.8289 7.49653 60.7507L7.50384 60.7478L7.51125 60.745C8.14307 60.5124 8.74837 60.1284 9.3755 59.6857C9.54348 59.5671 9.71492 59.4428 9.88887 59.3167C10.3449 58.986 10.8182 58.6428 11.2919 58.3572L11.299 58.3529L11.3062 58.3489C11.4493 58.2689 11.612 58.19 11.7661 58.1151L11.8154 58.0912C11.99 58.0063 12.1587 57.923 12.3169 57.8325C12.6471 57.6435 12.8522 57.4658 12.9416 57.2858L12.9467 57.2754L12.9523 57.2654C13.0476 57.0936 13.0961 56.7905 13.1207 56.3487C13.1261 56.2519 13.1303 56.147 13.1347 56.0381C13.1477 55.7131 13.1621 55.3516 13.2141 55.0593L13.2159 55.0496L13.216 55.0496C13.4242 54.0005 13.6321 52.897 13.8405 51.7907C13.9489 51.2153 14.0574 50.6393 14.1662 50.0697L14.1678 50.061L14.1679 50.0611C14.2412 49.7109 14.2837 49.3635 14.3287 48.9967C14.3379 48.9216 14.3472 48.8456 14.3569 48.7686C14.412 48.3317 14.4789 47.8692 14.6168 47.4134C14.7264 46.9717 14.9227 46.564 15.1153 46.2003C15.1805 46.0772 15.2438 45.9617 15.3046 45.8506C15.4352 45.6121 15.5544 45.3944 15.6568 45.1676L15.6604 45.1597L15.6605 45.1597C16.2984 43.8111 17.3131 42.1259 18.8812 41.4066C19.7061 41.0265 20.5378 40.8585 21.3324 40.7293C21.5047 40.7013 21.6741 40.6752 21.8412 40.6494C22.4612 40.5539 23.051 40.4631 23.6469 40.2957L23.649 40.2951C23.7245 40.2743 23.8001 40.2534 23.8757 40.2324C25.6269 39.7477 27.4029 39.2562 29.3626 39.2562H29.3715L29.3803 39.2565C31.1771 39.3201 32.9696 39.5106 34.6783 39.704C35.2397 39.7585 35.7841 39.8269 36.3174 39.894C37.4065 40.0308 38.4495 40.1619 39.4971 40.1567C41.0184 40.1492 42.4596 39.8466 43.8397 38.84C45.2192 37.8275 46.5119 36.6217 47.0923 35.1025C47.3846 34.335 47.5079 33.6266 47.5685 32.7718C47.5677 32.5124 47.5498 32.2672 47.5287 32.0185C47.5255 31.9803 47.5221 31.9418 47.5188 31.903C47.5003 31.6892 47.481 31.4664 47.4739 31.2458C47.4566 30.7065 47.5101 30.1432 47.808 29.5089L47.8126 29.4992L47.8127 29.4992C48.366 28.3845 49.2401 27.2708 50.0173 26.2807C50.1683 26.0884 50.3157 25.9006 50.4563 25.7185C53.1595 21.8794 53.9091 17.6427 51.2722 13.5876C51.2097 13.5008 51.1462 13.413 51.082 13.3241C50.4718 12.4791 49.7939 11.5406 49.2414 10.5396C48.6269 9.42635 48.146 8.20004 48.0782 6.88118L48.0778 6.87234L48.0779 6.87234C48.0085 4.813 49.4458 3.05298 51.4232 3.29105C51.4865 3.29684 51.6799 3.27627 52.0035 3.19749C52.3057 3.1239 52.6601 3.01556 53.0015 2.89584C53.1494 2.84398 53.2927 2.79075 53.4262 2.73823C53.2822 2.69739 53.1255 2.65532 52.9602 2.61238C52.7417 2.5556 52.5062 2.49701 52.2703 2.43831C51.6842 2.29248 51.0956 2.14601 50.7573 2.02508C50.4025 1.90555 50.1052 1.71628 49.8498 1.52416C49.7057 1.41577 49.5445 1.28126 49.3989 1.15977C49.3103 1.08577 49.2274 1.0166 49.1576 0.961083C48.7351 0.624732 48.4021 0.44772 47.9484 0.513725L47.9403 0.514895L47.9403 0.51483C47.5852 0.56061 47.2056 0.78317 46.8417 1.1427C46.483 1.49705 46.1813 1.94422 45.9811 2.34976L45.9806 2.35073C45.1003 4.12461 45.0936 6.65761 45.8693 8.51598L45.8727 8.52405L45.8726 8.52408C46.3328 9.68309 46.9671 10.7072 47.6236 11.7671C47.8439 12.1226 48.0666 12.4822 48.286 12.8522C49.1457 14.3015 49.9207 15.8652 50.089 17.8L50.09 17.8107L50.0898 17.8107C50.1569 18.8333 50.111 19.9986 49.8039 21.0563C49.4962 22.1164 48.9124 23.1095 47.8769 23.7049C47.8765 23.7051 47.8761 23.7053 47.8758 23.7055L47.6267 23.272C46.2261 24.0865 45.3741 23.4705 44.3327 22.7176C44.1492 22.5849 43.9599 22.4481 43.7606 22.314L8.15441 35.0647ZM8.15441 35.0647C7.62347 35.2427 7.08284 35.5105 6.57811 35.7604C6.5026 35.7978 6.4279 35.8348 6.35415 35.871C5.98541 36.0522 5.63716 36.2164 5.30403 36.3417C5.27822 36.0558 5.23021 35.7599 5.14443 35.4748C4.98714 34.952 4.6919 34.4316 4.14415 34.0915L3.84824 33.9078L3.57335 34.1217C2.71237 34.7917 2.44632 35.7662 2.44633 36.6954C2.44633 37.0991 2.49593 37.5065 2.57374 37.898C2.17894 37.515 1.82174 37.0456 1.51668 36.5253C0.955136 35.5676 0.600719 34.4883 0.512193 33.5793C0.431365 32.687 0.760517 31.8917 1.28863 31.0781C1.55341 30.6702 1.85809 30.2725 2.17501 29.8597L2.18624 29.8451C2.49445 29.4437 2.81475 29.0265 3.09266 28.5981C4.15301 27.0115 6.39318 26.026 8.8112 25.4227C11.1998 24.8268 13.6197 24.6366 14.8875 24.5398L14.9859 24.5323L15.0741 24.4879C16.3896 23.8261 17.4477 23.2488 18.3957 22.7316C20.3305 21.676 21.8067 20.8706 24.0757 20.1075C25.8195 19.522 27.1875 19.3988 28.5927 19.4216C29.2005 19.4315 29.8121 19.4686 30.4727 19.5086C30.585 19.5154 30.6987 19.5223 30.814 19.5292C31.6038 19.5761 32.4594 19.6207 33.4256 19.6207C35.126 19.6207 36.6549 19.6845 38.1668 20.1127C39.9395 20.6687 41.8544 21.7213 43.4892 22.734L8.15441 35.0647ZM49.5909 17.8434C49.3935 15.5737 48.3106 13.826 47.2157 12.0587C46.553 10.9892 45.8859 9.91252 45.4079 8.70859C44.5819 6.72971 44.5819 4.04443 45.5328 2.12845C45.9746 1.23336 46.8631 0.149569 47.8764 0.0189334C48.6763 -0.0974421 49.2019 0.342514 49.7423 0.794923C50.1007 1.09487 50.4655 1.4003 50.9212 1.55269C51.2334 1.66489 51.7804 1.80099 52.3559 1.94419C52.9994 2.10431 53.6786 2.27331 54.1052 2.42772L49.5909 17.8434ZM48.5776 6.8555C48.6964 9.16602 50.1972 11.2445 51.4883 13.0326C51.5544 13.1241 51.62 13.215 51.6848 13.305C54.4751 17.5869 53.649 22.0576 50.8588 26.0153L48.5776 6.8555ZM48.2606 29.7215C47.8987 30.4921 47.9543 31.1355 48.0167 31.8569C48.042 32.1501 48.0685 32.4562 48.0685 32.789C48.0061 33.6841 47.8764 34.4485 47.5594 35.2807L48.2606 29.7215ZM29.3626 39.7562C27.4724 39.7562 25.7556 40.2311 23.9897 40.7197C23.9206 40.7388 23.8514 40.7579 23.7821 40.7771C23.1541 40.9535 22.5261 41.0501 21.902 41.1461C20.9511 41.2924 20.0092 41.4373 19.09 41.8609C17.6973 42.4995 16.7464 44.0333 16.1125 45.3735L29.3626 39.7562ZM13.2674 41.1004C13.2674 41.1004 13.2672 41.1009 13.2665 41.1019C13.2671 41.1008 13.2674 41.1004 13.2674 41.1004ZM13.2637 41.1055C13.2629 41.1065 13.2624 41.1069 13.2624 41.1068C13.2624 41.1068 13.2628 41.1063 13.2637 41.1055ZM34.3419 42.258C34.811 42.3822 35.354 42.4843 35.8814 42.5618C36.4254 42.6418 36.9748 42.6987 37.4403 42.7256C37.413 43.0061 37.3799 43.2998 37.3457 43.6033L37.3435 43.6225C37.2873 44.1214 37.2287 44.6447 37.1921 45.1558C37.1207 46.1542 37.1231 47.2065 37.4608 47.9985L37.4645 48.0072L37.4686 48.0157C38.134 49.426 39.3299 50.3676 40.6078 51.1852C41.0502 51.4682 41.4967 51.7338 41.9419 51.9986C42.8217 52.5219 43.6963 53.0421 44.524 53.688C45.2426 54.2492 46.0117 54.757 46.7583 55.25C47.0499 55.4426 47.3381 55.6328 47.6184 55.8231C48.6324 56.5114 49.574 57.2177 50.3554 58.0967L50.365 58.1075L50.3753 58.1178C50.6606 58.4036 50.9158 58.7156 51.191 59.0521C51.2944 59.1785 51.4007 59.3084 51.5124 59.4417C51.9036 59.9083 52.3449 60.3927 52.9 60.7807C53.1723 61.0019 53.5417 61.1405 53.8879 61.2413C54.2415 61.3443 54.6398 61.4261 55.0112 61.5024L55.0504 61.5105C55.444 61.5914 55.8045 61.6667 56.105 61.7584C56.3751 61.8408 56.5342 61.9191 56.6155 61.9808C56.6874 62.1033 56.7685 62.2502 56.8395 62.4043C56.6653 62.3993 56.4878 62.4021 56.3149 62.4076C56.0942 62.4145 55.8614 62.427 55.6298 62.4394L55.5475 62.4438C55.2863 62.4577 55.0261 62.4709 54.771 62.4767C54.2531 62.4886 53.7946 62.4688 53.4366 62.3807C53.0787 62.2926 52.9046 62.158 52.8249 62.0046L52.4422 61.2681L51.97 61.9506C51.8366 62.1434 51.7324 62.1673 51.6285 62.1675C51.4682 62.1679 51.262 62.102 50.9461 61.9751C50.7096 61.8468 50.5705 61.7212 50.4781 61.604C50.3816 61.4815 50.3166 61.3438 50.2546 61.1635C50.2304 61.0929 50.2062 61.0116 50.1794 60.9217C50.0779 60.5809 49.94 60.1177 49.6246 59.6552L49.5995 59.6184L49.5683 59.5866C49.3323 59.3462 48.9302 59.0597 48.5495 58.7884C48.5106 58.7607 48.4719 58.7331 48.4337 58.7058C47.9933 58.3911 47.572 58.0821 47.2901 57.7994C45.6962 56.0982 43.9301 54.8286 42.1077 53.6856C41.3074 53.1836 40.4917 52.7033 39.6758 52.2228C39.5631 52.1565 39.4505 52.0902 39.338 52.0238C38.4071 51.4751 37.476 50.9207 36.5506 50.3199C35.8021 49.8334 35.2837 49.4391 34.9308 49.1171C34.5746 48.792 34.4101 48.5611 34.3387 48.4065C34.2757 48.2704 34.285 48.1963 34.2998 48.1432C34.3226 48.0609 34.3727 47.9793 34.477 47.821L34.4842 47.8101L34.4908 47.7989C34.6175 47.5829 34.9739 46.7984 35.0934 45.7757C35.2087 44.7895 35.1073 43.5428 34.3264 42.3731L34.3419 42.258Z" fill="white" stroke="url(#paint0_linear)"/>
<defs>
<linearGradient id="paint0_linear" x1="57.5151" y1="1.42294e-06" x2="27.6319" y2="73.0684" gradientUnits="userSpaceOnUse">
<stop stop-color="white" stop-opacity="0.8"/>
<stop offset="0.371753" stop-opacity="0.1"/>
<stop offset="0.626974" stop-color="#FDFCFC" stop-opacity="0.6"/>
<stop offset="1" stop-opacity="0.25"/>
</linearGradient>
</defs>
</svg>
