<svg width="62" height="67" viewBox="0 0 62 67" fill="none" xmlns="http://www.w3.org/2000/svg">
<path d="M32.1972 28.5339L32.3579 28.9928L32.3593 28.9966C32.423 29.1788 32.49 29.3699 32.5518 29.5678C33.1237 31.2449 34.8003 32.1081 36.401 31.5987C38.0397 31.0748 38.9498 29.3433 38.4306 27.6491L32.1972 28.5339ZM32.1972 28.5339L31.734 28.6818M32.1972 28.5339L31.734 28.6818M31.734 28.6818C29.7826 29.3046 28.881 31.4954 29.4155 33.6328L29.4156 33.6331M31.734 28.6818L29.4156 33.6331M29.4156 33.6331C30.0789 36.2771 32.5984 38.182 35.4586 38.2822L35.4588 38.2823M29.4156 33.6331L35.4588 38.2823M35.4588 38.2823C39.4975 38.4228 43.0444 35.5831 44.1141 31.449L44.1143 31.4485M35.4588 38.2823L44.1143 31.4485M44.1143 31.4485C45.5373 25.9241 42.329 20.1257 36.7659 18.0529C30.6529 15.7744 23.6716 18.4253 20.1961 24.292C16.2074 31.0191 17.7276 39.9739 23.7246 45.1995C31.2911 51.7945 42.6241 51.2054 49.7332 43.8711C56.925 36.4537 57.8381 24.7576 51.9135 16.1168C45.0355 6.07094 31.7686 2.79046 20.9706 8.45076L20.9703 8.45091M44.1143 31.4485L20.9703 8.45091M20.9703 8.45091C11.0308 13.6697 5.36774 24.6135 6.82512 35.8018C8.48443 48.5853 18.0567 58.7383 30.601 60.8484L30.601 60.8484M20.9703 8.45091L30.601 60.8484M30.601 60.8484C39.9812 62.4251 48.3618 60.0231 55.7032 53.9642L55.7035 53.9639M30.601 60.8484L55.7035 53.9639M55.7035 53.9639C55.8622 53.8327 56.0191 53.7035 56.1849 53.5673C56.6362 54.0736 57.0856 54.5786 57.5383 55.0872C58.2248 55.8587 58.9189 56.6385 59.6384 57.4441C59.3499 57.6705 59.0655 57.8964 58.7831 58.1207C57.875 58.842 56.9877 59.5468 56.0517 60.1968C51.1761 63.574 45.8 65.6844 39.9296 66.2837C28.7347 67.4202 19.0667 64.0769 11.0979 56.0231L11.0976 56.0228M55.7035 53.9639L11.0976 56.0228M11.0976 56.0228C6.47508 51.3582 3.55441 45.7225 2.2022 39.2703L11.0976 56.0228ZM20.6704 2.87812L20.6704 2.87814C6.55253 8.91434 -0.923105 24.3077 2.20214 39.27L20.6704 2.87812ZM20.6704 2.87812C32.294 -2.09294 45.6986 0.884009 54.0072 10.412L54.0073 10.412M20.6704 2.87812L54.0073 10.412M54.0073 10.412C59.0683 16.2143 61.446 23.0673 60.8104 30.7507C60.0023 40.5297 55.331 47.9477 46.5852 52.4038L46.5851 52.4039M54.0073 10.412L46.5851 52.4039M46.5851 52.4039C35.3062 58.1553 21.7343 54.035 15.6442 43.2013L15.6442 43.2012M46.5851 52.4039L15.6442 43.2012M15.6442 43.2012C10.9053 34.774 12.3077 24.154 19.1227 17.4186C25.8847 10.7364 36.4684 10.2193 43.6639 16.2028L43.6641 16.2029M15.6442 43.2012L43.6641 16.2029M43.6641 16.2029C50.5248 21.9045 51.5198 32.1961 45.8933 38.7903C41.2542 44.2235 33.2804 45.0555 28.0836 40.7161C24.1982 37.4674 23.0314 32.025 25.272 27.8255C27.1643 24.2818 31.0915 22.5663 34.5154 23.7319L34.5158 23.732M43.6641 16.2029L34.5158 23.732M34.5158 23.732C36.4639 24.3934 37.819 25.6586 38.4305 27.649L34.5158 23.732Z" fill="white" stroke="url(#paint0_linear)"/>
<defs>
<linearGradient id="paint0_linear" x1="61.4113" y1="0.0017105" x2="29.3512" y2="77.4294" gradientUnits="userSpaceOnUse">
<stop stop-color="white" stop-opacity="0.8"/>
<stop offset="0.371753" stop-opacity="0.1"/>
<stop offset="0.626974" stop-color="#FDFCFC" stop-opacity="0.6"/>
<stop offset="1" stop-opacity="0.25"/>
</linearGradient>
</defs>
</svg>
